<svg width="332" height="350" viewBox="0 0 332 350" fill="none" xmlns="http://www.w3.org/2000/svg">
<path d="M17.056 219.816H2.34705V224.158H17.056V219.816Z" fill="#7BAABF"/>
<path d="M231.886 347.005C231.816 347.005 231.747 347.005 231.677 346.994C230.748 346.886 230.075 346.094 230.191 345.225L247.199 213.088C247.315 212.22 248.151 211.601 249.091 211.699C250.02 211.807 261.095 212.599 260.991 213.468L233.569 345.605C233.465 346.419 232.734 347.005 231.886 347.005Z" fill="#BADAEF"/>
<path d="M317.969 347.005C318.039 347.005 318.108 347.005 318.178 346.994C319.107 346.886 319.78 346.093 319.664 345.225L302.645 213.088C302.529 212.219 301.693 211.601 300.752 211.698C299.824 211.807 288.748 212.599 288.853 213.467L316.274 345.605C316.379 346.419 317.11 347.005 317.969 347.005Z" fill="#BADAEF"/>
<path d="M303.457 211.688H246.398V214.857H303.457V211.688Z" fill="#B4D9ED"/>
<path d="M303.457 239.135H246.398V242.304H303.457V239.135Z" fill="#BADAEF"/>
<path d="M303.562 211.872H246.27C244.795 211.872 243.611 210.754 243.611 209.387C243.611 208.008 244.807 206.901 246.27 206.901H303.562C305.036 206.901 306.22 208.019 306.22 209.387C306.232 210.765 305.036 211.872 303.562 211.872Z" fill="#69AAEC"/>
<path d="M268.629 144.246C268.629 144.246 203.13 61.5229 223.678 43.8539C244.227 26.1849 274.283 88.4171 268.629 144.246Z" fill="#1D9F9D"/>
<path d="M229.878 53.6218C236.274 62.6625 241.986 72.1373 246.92 81.9486C251.552 91.1738 255.534 100.692 258.878 110.395C261.954 119.316 264.508 128.4 266.586 137.56C268.432 145.733 269.895 153.97 270.986 162.262C271.903 169.197 272.553 176.165 273.087 183.133C273.146 183.893 273.25 184.663 273.296 185.423C273.32 185.846 274.028 185.846 274.005 185.423C273.842 182.21 273.772 178.987 273.54 175.774C273.273 172.16 272.937 168.557 272.507 164.954C271.532 156.76 270.22 148.609 268.525 140.512C266.61 131.385 264.218 122.355 261.292 113.477C258.1 103.796 254.304 94.2886 249.811 85.0634C245.028 75.2413 239.513 65.7013 233.128 56.7149C232.292 55.5428 231.457 54.3923 230.597 53.231C230.284 52.8403 229.587 53.2093 229.878 53.6218Z" fill="#0E7C74"/>
<path d="M264.903 103.937C264.636 107.671 264.601 111.415 264.438 115.159C264.369 116.874 264.299 118.589 264.218 120.293C264.148 121.801 263.858 123.462 264.137 124.949C264.195 125.242 264.636 125.199 264.717 124.949C264.961 124.254 264.984 123.451 265.065 122.735C265.158 121.921 265.193 121.107 265.251 120.293C265.367 118.578 265.483 116.874 265.553 115.159C265.704 111.426 265.843 107.671 265.599 103.937C265.576 103.525 264.938 103.525 264.903 103.937Z" fill="#0E7C74"/>
<path d="M254.698 75.5996C254.431 79.3331 254.397 83.0774 254.234 86.8218C254.164 88.5366 254.095 90.2514 254.013 91.9553C253.944 93.4639 253.653 95.1244 253.932 96.6113C253.99 96.9044 254.431 96.8609 254.513 96.6113C254.756 95.9167 254.78 95.1136 254.861 94.3973C254.954 93.5833 254.989 92.7693 255.047 91.9553C255.163 90.2405 255.279 88.5366 255.348 86.8218C255.499 83.0883 255.639 79.3331 255.395 75.5996C255.372 75.1763 254.733 75.1763 254.698 75.5996Z" fill="#0E7C74"/>
<path d="M239.746 50.0508C239.978 53.2308 240.21 56.4108 240.268 59.5908C240.291 61.2079 240.303 62.8359 240.28 64.453C240.256 65.9941 239.978 67.6872 240.268 69.2175C240.326 69.5106 240.767 69.4672 240.849 69.2175C241.359 67.7524 241.266 65.9833 241.324 64.453C241.383 62.7924 241.417 61.1319 241.383 59.4714C241.313 56.3022 241.127 53.0789 240.431 49.964C240.349 49.6058 239.722 49.6818 239.746 50.0508Z" fill="#0E7C74"/>
<path d="M228.159 64.9307C230.946 66.7106 233.744 68.4688 236.437 70.3681C237.83 71.3558 239.223 72.3543 240.581 73.3962C241.255 73.9063 241.905 74.4272 242.567 74.9373C243.194 75.4149 243.832 75.9684 244.552 76.3265C244.807 76.4568 245.144 76.1854 244.97 75.9358C244.053 74.6768 242.567 73.6783 241.324 72.7016C239.978 71.6379 238.619 70.6069 237.215 69.6193C234.463 67.6765 231.607 65.7881 228.519 64.3663C228.101 64.1818 227.776 64.6919 228.159 64.9307Z" fill="#0E7C74"/>
<path d="M230.179 69.8905C232.966 71.6704 235.764 73.4286 238.457 75.3279C239.85 76.3156 241.243 77.3141 242.601 78.356C243.275 78.8661 243.925 79.387 244.587 79.8971C245.214 80.3747 245.852 80.9282 246.572 81.2864C246.827 81.4166 247.164 81.1453 246.99 80.8956C246.073 79.6367 244.587 78.6382 243.344 77.6614C241.998 76.5978 240.639 75.5667 239.235 74.5791C236.483 72.6364 233.627 70.7479 230.539 69.3261C230.133 69.1308 229.808 69.6517 230.179 69.8905Z" fill="#0E7C74"/>
<path d="M241.429 94.8639C244.215 96.6438 247.013 98.402 249.706 100.301C251.099 101.289 252.493 102.287 253.851 103.329C254.524 103.839 255.174 104.36 255.836 104.871C256.463 105.348 257.101 105.902 257.821 106.26C258.077 106.39 258.413 106.119 258.239 105.869C257.322 104.61 255.836 103.612 254.594 102.635C253.247 101.571 251.889 100.54 250.484 99.5525C247.733 97.6097 244.877 95.7213 241.789 94.2995C241.371 94.1042 241.046 94.6251 241.429 94.8639Z" fill="#0E7C74"/>
<path d="M285.44 127.076C285.44 127.076 348.594 42.7686 327.547 25.6097C306.499 8.46166 278.23 71.4101 285.44 127.076Z" fill="#1D9F9D"/>
<path d="M320.918 35.1604C314.509 44.2988 308.995 53.9364 304.247 63.9213C299.812 73.2659 296.074 82.8819 292.986 92.6823C290.141 101.701 287.843 110.872 286.055 120.13C284.465 128.389 283.257 136.703 282.421 145.06C281.725 152.038 281.284 159.049 281.214 166.05C281.202 166.82 281.249 167.591 281.237 168.362C281.226 168.785 281.934 168.785 281.945 168.362C282.015 165.171 282.27 161.958 282.479 158.778C282.712 155.197 282.99 151.615 283.327 148.033C284.081 139.872 285.196 131.732 286.682 123.657C288.354 114.541 290.501 105.489 293.16 96.5677C296.062 86.8216 299.58 77.2491 303.736 67.9153C308.171 57.9521 313.43 48.3253 319.339 39.0567C320.093 37.8846 320.86 36.7124 321.626 35.5511C321.905 35.1279 321.208 34.748 320.918 35.1604Z" fill="#0E7C74"/>
<path d="M287.332 86.7022C287.193 90.4357 287.437 94.18 287.692 97.9135C287.808 99.6283 287.971 101.332 288.133 103.047C288.203 103.818 288.272 104.599 288.377 105.381C288.47 106.14 288.528 106.987 288.806 107.703C288.899 107.942 289.341 108.007 289.387 107.703C289.619 106.205 289.294 104.556 289.178 103.047C289.039 101.343 288.934 99.6283 288.818 97.9135C288.551 94.18 288.412 90.4357 288.04 86.7022C287.994 86.2898 287.355 86.2789 287.332 86.7022Z" fill="#0E7C74"/>
<path d="M296.736 58.115C296.596 61.8485 296.84 65.5929 297.095 69.3264C297.212 71.0412 297.374 72.7451 297.537 74.4599C297.606 75.2305 297.676 76.0119 297.78 76.7934C297.873 77.5531 297.931 78.3996 298.21 79.1159C298.303 79.3547 298.744 79.4198 298.79 79.1159C299.023 77.6182 298.698 75.9685 298.581 74.4599C298.442 72.756 298.338 71.0412 298.222 69.3264C297.955 65.5929 297.815 61.8485 297.444 58.115C297.397 57.7026 296.747 57.6918 296.736 58.115Z" fill="#0E7C74"/>
<path d="M310.98 32.1325C310.365 35.2583 310.272 38.4816 310.295 41.6616C310.307 43.3222 310.376 44.9827 310.493 46.6432C310.597 48.1627 310.551 49.9426 311.096 51.3969C311.189 51.6357 311.63 51.7008 311.677 51.3969C311.92 49.8992 311.619 48.2712 311.549 46.7626C311.468 45.1021 311.433 43.4416 311.421 41.781C311.386 38.5902 311.537 35.4102 311.677 32.2194C311.688 31.8612 311.05 31.7635 310.98 32.1325Z" fill="#0E7C74"/>
<path d="M323.309 46.2416C320.291 47.7176 317.528 49.6603 314.858 51.6356C313.488 52.6558 312.153 53.7194 310.829 54.8047C309.587 55.8358 308.078 56.8885 307.172 58.2126C307.01 58.4622 307.335 58.7336 307.59 58.6033C308.983 57.8653 310.168 56.6389 311.375 55.6621C312.71 54.5985 314.068 53.5566 315.438 52.5256C318.108 50.5286 320.883 48.6727 323.658 46.8059C324.029 46.5563 323.716 46.0354 323.309 46.2416Z" fill="#0E7C74"/>
<path d="M321.428 51.245C318.41 52.721 315.647 54.6637 312.977 56.639C311.607 57.6592 310.272 58.7228 308.948 59.8081C307.706 60.8392 306.197 61.8919 305.291 63.216C305.129 63.4657 305.454 63.737 305.709 63.6068C307.103 62.8687 308.287 61.6423 309.494 60.6655C310.829 59.6019 312.187 58.56 313.557 57.529C316.227 55.532 319.002 53.6761 321.777 51.8093C322.137 51.5597 321.835 51.0388 321.428 51.245Z" fill="#0E7C74"/>
<path d="M310.887 76.4787C307.869 77.9548 305.106 79.8975 302.436 81.8728C301.066 82.893 299.731 83.9566 298.407 85.0419C297.165 86.0729 295.656 87.1257 294.75 88.4498C294.588 88.6994 294.913 88.9707 295.168 88.8405C296.562 88.1025 297.746 86.8761 298.953 85.8993C300.288 84.8357 301.646 83.7938 303.016 82.7627C305.686 80.7657 308.461 78.9098 311.236 77.0431C311.607 76.8043 311.294 76.2834 310.887 76.4787Z" fill="#0E7C74"/>
<path d="M279.066 104.881C279.066 104.881 215.505 20.8452 236.472 3.59953C257.438 -13.6462 286.009 49.1829 279.066 104.881Z" fill="#259E78"/>
<path d="M242.439 13.4978C248.638 22.6904 254.141 32.2955 258.843 42.2261C263.254 51.5273 266.992 61.1107 270.104 70.8568C272.983 79.8541 275.316 89.0033 277.185 98.2286C278.834 106.423 280.099 114.671 280.993 122.963C281.748 129.931 282.235 136.909 282.607 143.899C282.642 144.648 282.735 145.396 282.758 146.134C282.769 146.558 283.478 146.558 283.466 146.134C283.385 142.889 283.385 139.655 283.222 136.421C283.048 132.839 282.793 129.258 282.444 125.676C281.667 117.482 280.54 109.321 279.043 101.213C277.348 92.0314 275.154 82.9364 272.437 73.9825C269.477 64.2581 265.913 54.6964 261.652 45.3953C257.09 35.4646 251.807 25.7944 245.608 16.656C244.795 15.4622 243.983 14.2792 243.147 13.107C242.857 12.7055 242.16 13.0745 242.439 13.4978Z" fill="#0E7C74"/>
<path d="M276.28 64.5185C275.92 68.2411 275.804 71.9963 275.56 75.7298C275.444 77.4446 275.351 79.1486 275.223 80.8634C275.119 82.3611 274.794 84.0216 275.038 85.5194C275.084 85.8233 275.537 85.7582 275.618 85.5194C275.874 84.8248 275.92 84.0325 276.013 83.3053C276.117 82.4913 276.175 81.6774 276.257 80.8634C276.419 79.1594 276.57 77.4446 276.675 75.7298C276.907 72.0072 277.139 68.252 276.976 64.5185C276.965 64.0952 276.315 64.1061 276.28 64.5185Z" fill="#0E7C74"/>
<path d="M266.737 35.9638C266.377 39.6864 266.261 43.4416 266.017 47.1751C265.901 48.8899 265.808 50.5939 265.681 52.3087C265.576 53.8064 265.251 55.467 265.495 56.9647C265.541 57.2686 265.994 57.2035 266.075 56.9647C266.331 56.2701 266.377 55.4778 266.47 54.7507C266.575 53.9367 266.633 53.1227 266.714 52.3087C266.876 50.6047 267.027 48.8899 267.132 47.1751C267.364 43.4525 267.596 39.6973 267.434 35.9638C267.422 35.5405 266.784 35.5514 266.737 35.9638Z" fill="#0E7C74"/>
<path d="M252.388 10.133C252.539 13.313 252.713 16.5039 252.69 19.6947C252.678 21.3118 252.655 22.9398 252.585 24.5569C252.516 26.0981 252.214 27.7803 252.469 29.3106C252.516 29.6145 252.969 29.5494 253.05 29.3106C253.317 28.6052 253.363 27.7912 253.445 27.0423C253.526 26.2175 253.572 25.3818 253.63 24.5461C253.735 22.8855 253.804 21.225 253.804 19.5645C253.804 16.3953 253.7 13.1719 253.073 10.0462C253.003 9.67721 252.365 9.76404 252.388 10.133Z" fill="#0E7C74"/>
<path d="M240.454 24.7633C243.24 26.6192 246.026 28.4534 248.708 30.4395C250.043 31.438 251.378 32.4365 252.69 33.4784C253.34 33.9994 253.99 34.5312 254.64 35.063C255.256 35.5514 255.882 36.1157 256.591 36.4847C256.846 36.615 257.171 36.3437 257.009 36.094C256.126 34.8134 254.652 33.7823 253.445 32.7838C252.098 31.6768 250.728 30.5915 249.312 29.5496C246.641 27.5851 243.855 25.6641 240.837 24.1989C240.407 24.0036 240.094 24.5245 240.454 24.7633Z" fill="#0E7C74"/>
<path d="M242.369 29.7559C245.155 31.6118 247.942 33.4459 250.623 35.4321C251.958 36.4306 253.294 37.4291 254.605 38.471C255.256 38.9919 255.906 39.5237 256.556 40.0555C257.171 40.5439 257.798 41.1083 258.506 41.4773C258.762 41.6075 259.087 41.3362 258.924 41.0866C258.042 39.8059 256.567 38.7749 255.36 37.7764C254.013 36.6693 252.643 35.584 251.227 34.5421C248.557 32.5777 245.771 30.6567 242.752 29.1915C242.311 28.9961 241.998 29.5171 242.369 29.7559Z" fill="#0E7C74"/>
<path d="M253.027 54.9571C255.813 56.8129 258.599 58.6471 261.281 60.6333C262.616 61.6318 263.951 62.6302 265.263 63.6722C265.913 64.1931 266.563 64.7249 267.213 65.2567C267.828 65.7451 268.455 66.3095 269.163 66.6785C269.419 66.8087 269.744 66.5374 269.581 66.2878C268.699 65.0071 267.225 63.976 266.017 62.9776C264.671 61.8705 263.301 60.7852 261.884 59.7433C259.214 57.7789 256.428 55.8579 253.41 54.3927C252.969 54.1865 252.655 54.7074 253.027 54.9571Z" fill="#0E7C74"/>
<path d="M273.169 129.399C273.169 129.399 312.28 79.1487 299.777 68.5669C287.274 57.9959 269.465 95.7107 273.169 129.399Z" fill="#3FC7A1"/>
<path d="M295.517 74.1887C287.738 84.6946 281.98 96.4377 277.882 108.604C274.422 118.882 272.17 129.497 270.893 140.209C270.348 144.854 269.837 149.607 269.999 154.285C270.011 154.719 270.661 154.698 270.707 154.285C271.183 150.226 271.404 146.134 271.868 142.075C272.426 137.137 273.203 132.221 274.202 127.348C276.559 115.865 280.146 104.588 285.161 93.8655C288.284 87.18 292.022 80.7332 296.225 74.5794C296.515 74.1561 295.818 73.7871 295.517 74.1887Z" fill="#0E7C74"/>
<path d="M274.782 105.044C274.655 107.313 274.759 109.592 274.875 111.86C274.922 112.88 275.003 113.9 275.084 114.921C275.154 115.843 275.165 116.831 275.433 117.732C275.491 117.927 275.769 117.873 275.792 117.688C275.908 116.744 275.758 115.756 275.711 114.823C275.653 113.803 275.607 112.772 275.549 111.752C275.433 109.516 275.398 107.28 275.212 105.055C275.189 104.784 274.794 104.784 274.782 105.044Z" fill="#0E7C74"/>
<path d="M280.784 87.8747C280.657 90.143 280.761 92.4222 280.877 94.6905C280.924 95.7107 281.005 96.7309 281.086 97.7511C281.156 98.6736 281.167 99.6613 281.434 100.562C281.493 100.757 281.771 100.703 281.794 100.519C281.91 99.5745 281.76 98.5868 281.713 97.6534C281.655 96.6332 281.609 95.6022 281.551 94.582C281.434 92.3462 281.4 90.1105 281.214 87.8856C281.191 87.6251 280.808 87.6251 280.784 87.8747Z" fill="#0E7C74"/>
<path d="M289.689 72.3328C289.282 74.2212 289.189 76.1639 289.166 78.0741C289.155 79.0834 289.178 80.0928 289.224 81.1021C289.271 82.0355 289.247 83.0557 289.538 83.9674C289.596 84.1627 289.874 84.1085 289.898 83.924C290.025 83.0014 289.886 82.0355 289.863 81.113C289.839 80.1036 289.828 79.0943 289.84 78.0849C289.863 76.1856 289.99 74.2863 290.107 72.387C290.118 72.17 289.747 72.1157 289.689 72.3328Z" fill="#0E7C74"/>
<path d="M296.968 80.9721C295.099 81.8512 293.38 83.0017 291.732 84.1955C290.919 84.7816 290.118 85.3894 289.34 86.0188C288.574 86.6266 287.669 87.2561 287.1 88.0375C286.995 88.1895 287.204 88.3523 287.355 88.2763C288.203 87.8313 288.922 87.1259 289.665 86.5506C290.501 85.8994 291.36 85.27 292.231 84.6513C293.845 83.49 295.528 82.4156 297.2 81.3303C297.409 81.1675 297.223 80.8636 296.968 80.9721Z" fill="#0E7C74"/>
<path d="M295.772 83.9783C293.903 84.8574 292.185 86.0079 290.536 87.2017C289.723 87.7878 288.922 88.3956 288.145 89.025C287.378 89.6328 286.473 90.2623 285.904 91.0437C285.8 91.1957 286.009 91.3585 286.159 91.2825C287.007 90.8375 287.727 90.1321 288.47 89.5568C289.306 88.9057 290.165 88.2762 291.035 87.6575C292.649 86.4963 294.332 85.4218 296.004 84.3365C296.213 84.1737 296.016 83.8589 295.772 83.9783Z" fill="#0E7C74"/>
<path d="M289.12 99.1076C287.251 99.9867 285.533 101.137 283.884 102.331C283.071 102.917 282.27 103.525 281.493 104.154C280.726 104.762 279.821 105.392 279.252 106.173C279.147 106.325 279.356 106.488 279.507 106.412C280.355 105.967 281.075 105.261 281.818 104.686C282.653 104.035 283.513 103.405 284.383 102.787C285.997 101.626 287.68 100.551 289.352 99.4657C289.549 99.3029 289.364 98.9882 289.12 99.1076Z" fill="#0E7C74"/>
<path d="M299.429 165.941L299.15 167.678L298.57 171.379L292.904 206.901H259.133L253.479 171.379L252.887 167.678L252.609 165.941H299.429Z" fill="#F7BF38"/>
<path d="M299.15 167.678L298.57 171.379H253.479L252.887 167.678H299.15Z" fill="#F49A38"/>
<path d="M300.091 169.273H251.947C250.403 169.273 249.149 168.101 249.149 166.658C249.149 165.214 250.403 164.042 251.947 164.042H300.091C301.635 164.042 302.888 165.214 302.888 166.658C302.888 168.112 301.635 169.273 300.091 169.273Z" fill="#F7BF38"/>
<path d="M54.3451 313.349C38.3591 313.349 24.1841 315.91 18.809 317.006C17.4624 317.278 16.5336 318.406 16.5685 319.698C16.7542 324.994 17.4856 339.125 20.3531 353.571C23.8359 371.066 33.6341 382.755 44.5817 382.755H54.3451H54.3683H64.1317C75.0793 382.755 84.8775 371.066 88.3603 353.571C91.2278 339.136 91.9592 325.016 92.145 319.709C92.1914 318.417 91.251 317.289 89.8928 317.017C84.4016 315.921 69.8899 313.349 54.3451 313.349Z" fill="#69AAEC"/>
<g opacity="0.55">
<path opacity="0.55" d="M79.3283 206.89C78.2718 205.023 76.2054 203.504 73.9532 203.656C72.3627 203.764 70.9812 204.644 69.4604 205.099C67.9512 205.555 65.9311 205.371 65.2694 204.014C64.9327 203.341 65.0488 202.527 65.3507 201.843C65.966 200.465 67.3591 199.423 68.938 199.163C70.5052 198.902 72.2118 199.445 73.2914 200.541C71.7242 197.209 68.1601 194.854 64.3291 194.224C61.0669 193.693 55.5873 194.322 53.0216 196.536C50.9087 198.349 51.2686 201.626 51.9884 204.34C51.5588 204.654 51.0945 204.937 50.5953 205.143C48.9816 205.816 47.1821 206.054 45.522 206.63C41.0408 208.193 38.4055 212.946 39.3459 217.277C40.6577 223.235 46.4391 229.584 52.8823 230.463C51.0132 230.214 50.9319 226.046 52.3483 223.745C53.7646 221.444 56.6785 221.01 56.8178 225.373C56.8411 226.1 56.6901 226.817 56.7366 227.533C56.8991 229.714 58.9888 231.429 61.2526 231.983C63.5048 232.536 65.8963 232.189 68.195 231.766C67.4287 230.42 66.1517 229.411 65.1069 228.238C64.0621 227.077 63.203 225.579 63.5164 224.082C64.6309 224.234 65.0604 225.471 65.6641 226.361C67.6377 229.269 71.7938 227.88 74.6381 227.251C77.9119 226.524 81.7662 225.71 84.2971 227.783C83.8675 225.623 83.4264 223.441 82.4047 221.455C81.3831 219.48 79.7114 217.7 77.494 216.973C76.1473 216.539 74.6381 216.495 73.3843 215.855C70.6561 214.455 71.9099 211.893 74.6381 211.752C77.0645 211.622 80.3267 213.131 80.9652 215.421C80.1758 212.545 80.9071 209.69 79.3283 206.89Z" fill="#42C6A1"/>
<path opacity="0.55" d="M52.383 205.186C56.9339 205.382 60.4283 211.59 63.0171 214.455C65.13 216.799 67.4519 219.013 70.5167 220.196C70.8302 220.316 71.0043 219.86 70.7373 219.708C66.4999 217.168 63.6556 213.934 60.5444 210.309C58.4199 207.824 56.1444 204.622 52.383 204.73C52.058 204.741 52.0696 205.175 52.383 205.186Z" fill="#6EE5BD"/>
<path opacity="0.55" d="M49.3646 219.534C49.3298 218.85 49.5155 218.232 49.9219 217.656C50.038 217.45 49.7361 217.19 49.5504 217.396C48.9351 218.069 48.7261 218.666 48.6216 219.534C48.5752 219.968 49.353 219.99 49.3646 219.534Z" fill="#659AC1"/>
<path opacity="0.55" d="M51.2222 215.388C52.8939 212.87 58.2226 210.092 56.8411 206.532C56.725 206.239 56.3071 206.293 56.2722 206.608C56.04 208.93 55.1345 210.341 53.428 212.024C52.4412 213 51.5589 214.01 50.9436 215.236C50.8391 215.41 51.1061 215.551 51.2222 215.388Z" fill="#6EE5BD"/>
<path opacity="0.55" d="M59.5111 217.787C60.2657 215.703 61.775 212.903 60.4283 210.797C60.2658 210.537 59.7433 210.711 59.871 211.015C60.7998 213.218 60.1148 215.584 59.4763 217.787C59.4763 217.798 59.5111 217.798 59.5111 217.787Z" fill="#6EE5BD"/>
<path opacity="0.55" d="M73.8022 209.104C71.9099 208.562 70.1337 208.692 68.2298 209.169C65.548 209.842 63.261 211.329 60.4167 210.341C59.9291 210.168 59.6853 210.841 60.08 211.09C61.4964 211.991 63.0404 211.796 64.6193 211.329C67.7306 210.407 70.3427 208.703 73.779 209.202C73.8371 209.213 73.8719 209.115 73.8022 209.104Z" fill="#6EE5BD"/>
<path opacity="0.55" d="M63.3887 198.403C62.0304 199.315 60.9391 200.433 60.1613 201.822C59.8246 202.419 59.5924 203.059 59.2906 203.667C58.6869 204.904 57.7117 205.61 56.5276 206.38C55.7498 206.89 56.4928 208.095 57.2822 207.574C58.5708 206.727 59.9756 205.631 60.4051 204.155C61.0436 201.941 61.7286 200.281 63.6441 198.696C63.8066 198.566 63.5744 198.284 63.3887 198.403Z" fill="#6EE5BD"/>
<path opacity="0.55" d="M66.9296 220.967C66.117 219.523 66.0938 218.21 65.7919 216.68C65.7455 216.441 65.3508 216.452 65.2927 216.68C64.8748 218.243 65.583 219.914 66.4188 221.26C66.6046 221.574 67.1038 221.292 66.9296 220.967Z" fill="#6EE5BD"/>
</g>
<path d="M69.8087 174.092C68.2995 170.044 65.6062 165.257 60.4052 167.938C53.695 171.389 55.8195 181.613 55.7034 187.094C55.0881 215.844 53.3816 296.299 56.6902 324.929C56.7947 325.798 58.153 325.841 58.1762 324.929C58.5593 306.273 57.8047 236.66 57.677 218.004C57.619 209.289 57.6538 200.574 57.7815 191.858C57.8511 187.018 57.8976 182.167 58.0717 177.326C58.1414 175.351 57.7583 172.344 59.8131 170.999C62.6574 169.143 67.2431 171.769 68.671 174.526C68.9845 175.123 70.0409 174.71 69.8087 174.092Z" fill="#0E7C74"/>
<path d="M38.4635 165.149C44.9996 179.616 45.6381 198.36 47.4956 213.782C49.2834 228.532 49.9335 309.876 51.4892 324.647C51.582 325.472 52.8823 325.505 52.8939 324.647C53.068 307.684 51.0945 224.049 48.8074 207.238C46.9035 193.237 46.1373 177.315 39.9495 164.335C39.5084 163.369 38.0456 164.205 38.4635 165.149Z" fill="#0E7C74"/>
<path d="M30.4763 186.964C36.2345 190.415 36.664 198.034 37.7437 203.558C38.8001 208.952 39.7405 214.368 40.5996 219.794C42.3177 230.615 43.1652 314.564 45.0227 325.363C45.1504 326.134 46.4622 325.939 46.4506 325.179C46.2997 311.493 43.9198 224.57 41.3193 211.123C39.7753 203.167 39.6128 190.469 31.2425 185.726C30.395 185.26 29.652 186.464 30.4763 186.964Z" fill="#0E7C74"/>
<path d="M73.1754 213.315C66.7206 212.306 65.8383 226.827 65.0372 230.333C62.0653 243.248 59.4764 311.157 60.3819 324.365C60.4051 324.745 60.9856 324.745 61.0088 324.365C61.5312 318.331 64.5729 212.827 73.1173 213.641C73.3263 213.663 73.3727 213.348 73.1754 213.315Z" fill="#0E7C74"/>
<path d="M90.9609 182.156C90.6242 181.439 90.2063 180.766 89.6839 180.148C89.0802 179.442 88.3256 178.802 87.4084 178.52C86.619 178.281 85.7715 178.314 84.9473 178.259C83.8444 178.194 82.7647 177.966 81.7315 177.586C80.9537 177.304 80.1294 176.827 80.0249 176.056C79.9437 175.448 80.3616 174.873 80.884 174.504C81.8592 173.799 83.2407 173.636 84.3784 174.081C85.0285 174.341 85.5858 174.775 86.2243 175.068C86.8628 175.351 87.6755 175.47 88.2443 175.079C88.8712 174.656 88.9641 173.777 88.6623 173.104C88.3604 172.442 87.7567 171.943 87.1647 171.476C85.4697 170.13 83.7051 168.817 81.6967 167.927C79.6883 167.026 77.4012 166.56 75.2071 166.961C73.0245 167.374 70.9929 168.763 70.2499 170.716C70.0061 171.357 69.9016 172.051 69.5301 172.637C68.9729 173.506 67.9281 173.994 66.9064 174.33C65.6526 174.743 64.3524 175.003 63.0289 175.101C61.868 175.188 60.649 175.166 59.5926 175.633C58.7335 176.013 58.0718 176.696 57.5377 177.434C56.0169 179.562 55.5177 182.242 55.8544 184.782C56.1911 187.322 57.3055 189.731 58.7683 191.891C59.314 192.694 59.9176 193.475 60.7187 194.051C61.5197 194.626 63.5746 195.505 64.573 195.353C65.5365 195.103 64.9561 193.866 64.573 193.378C63.6558 192.195 62.9709 190.751 63.4469 189.362C63.8764 188.103 65.0722 188.483 66.0241 189.655C68.0441 192.14 65.5481 193.323 68.2299 196.775C68.7639 197.469 72.119 199.26 73.0245 199.347C73.7211 199.412 74.9052 199.89 75.5205 199.401C76.4725 198.663 74.8936 197.35 74.4409 196.764C73.8256 195.961 73.3612 194.995 73.2915 193.996C73.2683 193.758 73.5005 191.902 73.4425 191.88C74.4641 192.368 74.3015 193.595 74.6614 194.452C75.3348 196.08 77.7031 196.655 79.3632 196.807C80.9189 196.938 82.4861 196.786 84.0301 197.024C85.3072 197.22 86.5377 197.697 87.5942 198.403C87.9076 198.609 88.2443 198.848 88.6158 198.837C89.4749 198.815 89.6955 197.719 89.6374 196.927C89.3936 193.823 88.6042 190.447 85.9573 188.57C85.4929 188.233 84.9705 187.962 84.5758 187.55C84.1927 187.137 83.9605 186.529 84.1927 186.03C84.599 185.173 86.0153 185.249 86.7815 185.857C87.5594 186.453 87.9889 187.365 88.7319 188.005C89.4749 188.646 90.8216 188.885 91.3788 188.092C91.5297 187.875 91.5994 187.626 91.6458 187.376C91.9477 185.618 91.7039 183.784 90.9609 182.156Z" fill="#42C6A1"/>
<path d="M70.0061 173.82C73.8372 175.155 74.7427 181.244 76.1242 184.424C77.0994 186.67 78.2951 188.765 80.1758 190.458C80.3035 190.578 80.4893 190.404 80.3732 190.274C77.1807 186.79 75.9965 182.655 74.2203 178.476C73.338 176.403 72.4789 174.341 70.0641 173.614C69.9132 173.56 69.8552 173.766 70.0061 173.82Z" fill="#83F2D0"/>
<path d="M63.2494 184.575C63.4583 184 63.8066 183.545 64.3174 183.198C64.4103 183.122 64.2826 182.97 64.1781 183.035C63.5628 183.425 63.2262 183.794 62.9243 184.445C62.8198 184.673 63.1565 184.803 63.2494 184.575Z" fill="#83F2D0"/>
<path d="M66.0357 181.732C68.195 180.018 72.7923 179.301 73.0477 176.089C73.0593 175.937 72.8271 175.926 72.769 176.056C71.6429 179.171 68.2182 179.551 65.9196 181.624C65.8499 181.689 65.9544 181.787 66.0357 181.732Z" fill="#83F2D0"/>
<path d="M72.0144 185.802C73.2334 184.261 75.0096 182.492 74.6846 180.441C74.6613 180.289 74.3827 180.322 74.3943 180.474C74.5569 182.46 73.1637 184.229 72.0028 185.792C72.0028 185.802 72.0144 185.813 72.0144 185.802Z" fill="#83F2D0"/>
<path d="M85.9921 182.492C84.7383 181.678 83.4032 181.363 81.8824 181.266C79.4909 181.114 76.7975 181.873 74.8472 180.202C74.6382 180.028 74.3828 180.289 74.5453 180.484C75.416 181.515 76.7162 181.721 78.0629 181.754C80.8143 181.797 83.4264 181.157 85.9689 182.535C85.9921 182.546 86.0153 182.503 85.9921 182.492Z" fill="#83F2D0"/>
<path d="M80.7677 171.324C79.5371 171.715 78.411 172.279 77.459 173.115C77.0411 173.473 76.7044 173.886 76.3329 174.287C75.3461 175.329 74.371 175.785 72.9662 176.165C72.5251 176.284 72.7108 176.935 73.152 176.816C74.371 176.469 75.6712 176.024 76.4606 175.047C77.7377 173.484 78.7825 172.268 80.8141 171.509C80.9418 171.465 80.8954 171.281 80.7677 171.324Z" fill="#83F2D0"/>
<path d="M76.9251 190.263C76.693 188.95 76.9251 187.81 77.2734 186.54C77.3082 186.41 77.1109 186.323 77.0412 186.454C76.3911 187.68 76.3795 189.015 76.6465 190.339C76.6813 190.502 76.96 190.426 76.9251 190.263Z" fill="#83F2D0"/>
<path d="M4.70361 215.594C4.90097 214.411 5.27247 213.239 5.79489 212.143C6.41018 210.873 7.25766 209.658 8.52307 208.898C9.60274 208.258 10.8798 207.997 12.0871 207.628C13.7008 207.129 15.2216 206.402 16.6031 205.479C17.648 204.785 18.6928 203.764 18.5303 202.581C18.4026 201.648 17.5435 200.943 16.6264 200.563C14.885 199.857 12.7489 200.107 11.2513 201.181C10.3806 201.8 9.74205 202.647 8.90618 203.309C8.07031 203.96 6.90938 204.426 5.89937 204.047C4.78488 203.634 4.28568 202.354 4.47143 201.246C4.65718 200.139 5.35373 199.184 6.05029 198.273C8.03548 195.657 10.1252 193.074 12.7605 191.023C15.3842 188.961 18.6115 187.441 22.0363 187.268C25.461 187.094 29.0599 188.44 30.9754 191.099C31.6024 191.967 32.0435 192.966 32.8445 193.704C34.0287 194.8 35.7817 195.158 37.4418 195.288C39.4735 195.451 41.5283 195.375 43.5483 195.049C45.3245 194.767 47.124 194.29 48.8886 194.615C50.3165 194.876 51.5936 195.657 52.6848 196.569C55.831 199.195 57.6652 203.016 58.1992 206.923C58.7449 210.83 58.0599 214.824 56.7597 218.568C56.2837 219.957 55.7033 221.336 54.7397 222.486C53.7761 223.637 51.0711 225.677 49.5155 225.807C47.9715 225.775 48.343 223.713 48.7028 222.866C49.5968 220.782 50.0263 218.384 48.7493 216.474C47.5884 214.748 45.9631 215.746 45.0343 217.819C43.0375 222.247 47.2517 223.116 44.6512 229.215C44.1288 230.431 39.8682 234.305 38.5563 234.772C37.5463 235.13 35.9791 236.259 34.853 235.749C33.1348 234.978 34.9458 232.46 35.3754 231.429C35.9674 230.007 36.2577 228.401 35.9674 226.882C35.8978 226.524 34.8065 223.832 34.8762 223.778C33.5527 224.874 34.2957 226.643 34.11 228.043C33.7733 230.702 30.4762 232.417 28.0499 233.231C25.7861 233.98 23.383 234.316 21.1888 235.217C19.3662 235.977 17.7176 237.116 16.429 238.549C16.0459 238.972 15.6512 239.439 15.0707 239.569C13.7821 239.84 13.0043 238.299 12.7721 237.084C11.8665 232.373 11.6692 227.055 14.8501 223.311C15.419 222.649 16.0807 222.052 16.487 221.292C16.8934 220.533 16.9979 219.556 16.4406 218.894C15.477 217.754 13.4106 218.384 12.5051 219.556C11.5995 220.728 11.3209 222.237 10.485 223.452C9.64917 224.668 7.72203 225.503 6.58432 224.527C6.27087 224.266 6.07351 223.908 5.89937 223.55C4.63396 221.108 4.25085 218.286 4.70361 215.594Z" fill="#42C6A1"/>
<path d="M32.3802 195.44C29.536 197.144 28.6885 199.803 28.1893 202.82C26.9819 210.113 27.5159 217.179 23.8474 223.951C23.7661 224.103 23.9983 224.233 24.0912 224.082C26.1112 220.858 27.0516 217.494 27.6088 213.793C28.4099 208.507 27.1212 199.076 32.4963 195.635C32.6356 195.548 32.5195 195.353 32.3802 195.44Z" fill="#83F2D0"/>
<path d="M47.391 209.104C46.7525 208.279 46.0095 207.715 44.9647 207.4C44.8486 207.368 44.7557 207.541 44.8718 207.596C45.8006 207.986 46.4971 208.475 47.0776 209.278C47.2169 209.452 47.5304 209.278 47.391 209.104Z" fill="#83F2D0"/>
<path d="M41.7837 205.903C37.5463 203.678 32.0087 204.394 29.2457 200.042C29.1644 199.922 28.9322 199.998 28.9903 200.14C30.8013 204.774 37.7785 204.166 41.7025 206.033C41.7953 206.065 41.8766 205.946 41.7837 205.903Z" fill="#83F2D0"/>
<path d="M33.9709 214.26C31.6374 212.404 28.6074 210.222 28.1546 207.205C28.1314 207.053 27.8644 207.086 27.8644 207.237C28.0385 210.298 31.6606 212.523 33.9709 214.26C33.9709 214.281 33.9709 214.27 33.9709 214.26Z" fill="#83F2D0"/>
<path d="M11.8085 214.368C15.001 211.34 19.1456 211.34 23.2552 210.276C25.2288 209.766 26.9818 208.996 27.9106 207.194C28.0267 206.966 27.69 206.771 27.5391 206.999C25.4146 210.233 20.8869 210.103 17.4042 211.123C15.1984 211.774 13.3177 212.696 11.7736 214.335C11.7504 214.357 11.7853 214.39 11.8085 214.368Z" fill="#83F2D0"/>
<path d="M15.2797 195.397C18.7044 195.776 20.6664 197.187 23.2901 199.032C24.9038 200.161 26.9122 200.356 28.8742 200.432C29.3386 200.454 29.3386 199.781 28.8742 199.76C26.9819 199.694 25.2289 199.521 23.6384 198.533C22.698 197.947 21.8854 197.242 20.887 196.721C19.1456 195.809 17.2533 195.353 15.2797 195.201C15.152 195.201 15.1636 195.375 15.2797 195.397Z" fill="#83F2D0"/>
<path d="M29.2923 222.671C29.1762 220.685 28.5957 218.579 27.1446 217.06C27.0517 216.962 26.8775 217.092 26.9472 217.201C28.0036 218.991 28.8395 220.587 29.002 222.66C29.0136 222.844 29.3039 222.855 29.2923 222.671Z" fill="#83F2D0"/>
<path d="M61.9375 213.239C64.6889 208.431 71.1901 205.881 76.7393 207.693C78.7942 208.366 80.6865 209.462 82.7878 210.016C83.4263 210.178 84.0996 210.254 84.7729 210.276C86.3634 207.183 88.7898 203.819 92.3074 203.645C96.6028 203.439 102.315 206.868 104.962 209.766C106.773 211.752 108.166 213.966 108.235 216.647C108.247 217.157 108.201 217.689 107.875 218.101C107.434 218.655 106.598 218.785 105.867 218.742C105.136 218.698 104.393 218.525 103.661 218.622C102.512 218.774 101.537 219.653 101.235 220.706C100.945 221.759 101.305 222.931 102.082 223.734C102.396 224.06 102.779 224.331 103.174 224.581C104.23 224.863 105.252 225.188 106.134 225.774C107.899 226.957 108.676 229.041 108.688 231.017C108.7 232.731 107.817 234.197 107.179 235.749C106.738 236.812 104.985 241.653 103.034 240.003C102.64 239.667 102.582 239.113 102.512 238.625C102.315 237.214 101.63 235.673 100.19 235.206C99.3078 234.924 98.2513 235.141 97.578 235.749C96.9047 236.356 96.6376 237.333 96.9279 238.169C97.1252 238.755 97.5548 239.243 97.9031 239.753C98.5532 240.687 98.9595 241.74 99.1453 242.836C99.7722 244.757 99.6909 246.895 99.1685 248.859C98.4719 251.486 97.044 253.873 95.6393 256.239C94.9775 252.419 90.6473 250.346 86.9323 248.631C83.7049 247.134 78.5968 245.386 79.1773 241.186C79.3514 239.905 79.9899 238.408 79.0612 237.453C77.5055 238.636 77.0644 240.687 77.076 242.554C77.076 243.606 77.1921 244.659 77.2153 245.712C77.2269 246.233 77.552 247.557 76.7741 247.785C76.542 247.85 76.2982 247.752 76.0776 247.655C73.8602 246.645 71.7125 245.137 70.2729 243.248C68.6012 241.056 68.0672 237.897 69.7389 235.716C70.2962 235 71.0508 234.424 71.6312 233.73C75.1605 229.508 72.0492 227.771 68.7753 228.911C67.4635 229.367 66.2445 230.105 65.3158 231.093C64.805 231.635 64.4567 232.286 64.1897 232.959C63.9807 233.48 64.0736 234.24 63.6208 234.652C62.4831 235.694 61.5079 232.786 61.2293 232.243C60.6024 230.984 60.138 229.66 59.8246 228.303C59.1745 225.503 59.1396 222.573 59.6272 219.74C60.0452 217.494 60.7765 215.258 61.9375 213.239Z" fill="#1D9E99"/>
<path d="M84.4479 211.329C88.7433 215.225 86.6769 223.908 86.8162 228.868C86.9091 232.406 87.3851 235.662 89.0104 238.874C89.1497 239.146 89.6373 238.961 89.5328 238.668C87.3618 232.514 87.803 226.719 87.7798 220.381C87.7682 216.821 87.8494 213.435 84.7962 211.003C84.5524 210.808 84.2157 211.112 84.4479 211.329Z" fill="#37E2D6"/>
<path d="M69.4138 222.725C70.0291 222.041 70.6676 221.661 71.5731 221.336C71.8518 221.238 71.7473 220.869 71.4454 220.912C70.389 221.075 69.6344 221.509 68.8914 222.226C68.5547 222.551 69.112 223.061 69.4138 222.725Z" fill="#37E2D6"/>
<path d="M74.7193 220.153C78.3414 219.013 85.7365 220.185 87.4663 215.855C87.5708 215.594 87.1761 215.41 86.9787 215.594C85.0748 217.472 83.2405 218.253 80.5007 218.59C78.4459 218.85 76.4955 219.078 74.58 219.87C74.429 219.935 74.5451 220.207 74.7193 220.153Z" fill="#37E2D6"/>
<path d="M80.9651 228.553C83.3218 227.185 87.3038 225.482 87.6637 222.551C87.6985 222.226 87.1645 222.182 87.0716 222.475C86.1313 225.243 83.4031 226.958 80.9535 228.531C80.9419 228.531 80.9535 228.553 80.9651 228.553Z" fill="#37E2D6"/>
<path d="M101.873 230.843C100.527 228.879 98.5532 227.707 96.2893 226.784C93.2245 225.536 89.8578 225.221 88.1048 222.237C87.861 221.824 87.1876 222.106 87.3037 222.551C87.8029 224.483 89.6953 225.471 91.5527 226.144C95.1981 227.479 99.1684 227.891 101.792 230.897C101.815 230.952 101.897 230.887 101.873 230.843Z" fill="#37E2D6"/>
<path d="M101.038 213.033C98.9015 212.935 96.928 213.217 94.966 214.031C93.9792 214.444 93.0737 215.052 92.0637 215.399C90.6706 215.866 89.1846 215.768 87.7218 215.659C86.7698 215.583 86.7698 216.984 87.7218 217.049C89.4167 217.168 91.4135 217.179 92.9344 216.376C94.0372 215.79 94.9195 214.954 96.0921 214.444C97.6593 213.76 99.3079 213.478 101.038 213.435C101.305 213.413 101.305 213.044 101.038 213.033Z" fill="#37E2D6"/>
<path d="M84.8543 237.04C85.2722 235.054 86.4215 233.828 87.3851 232.113C87.5012 231.907 87.2574 231.635 87.0252 231.776C85.3419 232.829 84.564 235.108 84.2622 236.877C84.2042 237.235 84.773 237.398 84.8543 237.04Z" fill="#37E2D6"/>
<path d="M66.2678 261.927C66.9992 255.295 62.2278 248.447 55.2158 246.613C52.6153 245.929 49.8639 245.788 47.3098 244.963C46.532 244.713 45.789 244.344 45.0808 243.921C45.731 239.764 45.7426 234.794 42.2598 232.308C38.0108 229.269 29.6289 228.955 24.7878 230.127C21.4675 230.93 18.4027 232.232 16.3594 234.88C15.9763 235.38 15.6281 235.955 15.6513 236.574C15.6977 237.42 16.4407 238.104 17.2301 238.538C18.0196 238.983 18.9019 239.287 19.5752 239.862C20.6433 240.774 20.9916 242.304 20.5156 243.552C20.0396 244.8 18.809 245.734 17.4159 246.027C16.847 246.146 16.2666 246.168 15.6745 246.157C14.3859 245.755 13.0972 245.397 11.7506 245.408C9.0572 245.441 6.73534 247.014 5.26096 248.99C3.98394 250.704 3.79819 252.756 3.3106 254.731C2.97393 256.088 1.19771 262.1 4.41349 261.731C5.06361 261.655 5.52798 261.134 5.96913 260.689C7.21132 259.398 9.0572 258.313 10.8683 258.79C11.9827 259.083 12.8999 259.995 13.1437 261.048C13.3759 262.1 12.9347 263.251 12.0292 263.913C11.3907 264.369 10.6012 264.575 9.85824 264.857C8.51157 265.367 7.3042 266.159 6.3058 267.136C4.25095 268.656 2.75336 270.848 1.83622 273.171C0.617246 276.264 0.303795 279.606 0.00195312 282.895C3.49635 279.498 9.46353 280.269 14.5252 280.985C18.9367 281.614 25.4495 283.21 27.9571 278.619C28.7233 277.219 29.1761 275.298 30.8362 274.94C31.556 277.154 30.488 279.498 29.1065 281.365C28.317 282.417 27.4231 283.394 26.6221 284.436C26.2274 284.957 24.9155 286.075 25.5308 286.813C25.7165 287.03 26.0416 287.106 26.3434 287.149C29.3503 287.594 32.6705 287.497 35.5264 286.552C38.8467 285.456 41.7374 282.634 41.6329 279.346C41.5981 278.261 41.2498 277.186 41.1569 276.101C40.6577 269.535 45.1273 269.849 47.6465 273.149C48.6565 274.473 49.3531 276.014 49.5852 277.609C49.713 278.489 49.5736 279.368 49.3531 280.225C49.1789 280.876 48.5172 281.593 48.6797 282.298C49.0744 284.089 52.2206 281.82 52.9055 281.451C54.4728 280.605 55.9239 279.574 57.2474 278.423C59.9756 276.036 62.1813 273.116 63.7718 269.958C65.0604 267.429 65.9544 264.716 66.2678 261.927Z" fill="#1D9E99"/>
<path d="M44.6397 245.191C37.3723 246.276 33.0653 256.348 29.269 261.243C26.564 264.727 23.6617 267.69 19.6333 269.839C19.285 270.023 18.9251 269.502 19.2502 269.285C26.0068 264.531 29.8379 258.432 34.5396 252.083C37.1749 248.523 39.5897 245.072 44.5236 244.637C44.9067 244.605 45.0228 245.137 44.6397 245.191Z" fill="#37E2D6"/>
<path d="M51.6051 266.518C51.4774 265.432 51.1059 264.629 50.421 263.707C50.212 263.424 50.5835 263.121 50.8622 263.37C51.8257 264.228 52.2669 265.161 52.5107 266.376C52.6152 266.919 51.6748 267.06 51.6051 266.518Z" fill="#37E2D6"/>
<path d="M47.751 260.537C44.8835 257.01 36.4435 253.309 37.8715 247.839C37.9527 247.513 38.4984 247.579 38.5564 247.893C39.1137 251.019 40.4255 253.016 42.9679 255.165C44.8719 256.771 46.7061 258.291 48.0876 260.342C48.2153 260.526 47.8903 260.711 47.751 260.537Z" fill="#37E2D6"/>
<path d="M35.5149 264.813C34.1101 261.883 31.2891 257.563 33.0885 254.383C33.2859 254.025 33.8663 254.34 33.7502 254.698C32.6706 258.095 34.203 261.612 35.5381 264.792C35.5497 264.824 35.5265 264.835 35.5149 264.813Z" fill="#37E2D6"/>
<path d="M12.4935 253.407C15.3262 252.321 18.1937 252.441 21.2005 253.016C25.2637 253.787 28.9439 255.675 32.9375 253.841C33.4947 253.58 33.9707 254.318 33.5296 254.687C31.5908 256.294 28.9323 256.044 26.5292 255.501C21.8158 254.449 17.4391 252.245 12.54 253.537C12.4587 253.548 12.4239 253.439 12.4935 253.407Z" fill="#37E2D6"/>
<path d="M26.4015 236.194C28.6537 237.496 30.4648 239.081 31.8811 241.186C32.5893 242.25 33.0536 243.455 33.8431 244.475C34.9227 245.864 36.5132 246.732 38.0921 247.59C39.1137 248.143 38.0921 249.543 37.0704 248.979C35.2478 247.98 33.1929 246.689 32.2294 244.866C31.5328 243.552 31.2426 242.141 30.4299 240.85C29.3386 239.124 27.8527 237.768 26.1113 236.585C25.8443 236.389 26.1229 236.031 26.4015 236.194Z" fill="#37E2D6"/>
<path d="M25.2405 270.729C26.2738 268.46 25.9951 266.474 26.2738 264.119C26.3086 263.837 26.7613 263.728 26.8891 264.021C27.8294 266.181 26.9355 268.981 25.9487 270.967C25.7513 271.358 25.0548 271.141 25.2405 270.729Z" fill="#37E2D6"/>
<path d="M55.9122 171.096C56.481 166.657 53.3814 162.077 48.7376 160.851C47.0079 160.395 45.1852 160.308 43.5018 159.755C42.991 159.581 42.4918 159.342 42.0275 159.06C42.5151 156.282 42.5731 152.95 40.2861 151.289C37.4998 149.26 31.9274 149.064 28.6884 149.857C26.471 150.399 24.4162 151.278 23.023 153.058C22.756 153.395 22.5238 153.775 22.5355 154.187C22.5587 154.751 23.0463 155.207 23.5571 155.5C24.0795 155.793 24.66 156 25.1011 156.39C25.7977 156.998 26.0182 158.018 25.6816 158.854C25.3449 159.69 24.5206 160.319 23.5919 160.515C23.2088 160.591 22.8257 160.612 22.431 160.601C21.5835 160.33 20.7244 160.091 19.8305 160.102C18.0427 160.124 16.4754 161.187 15.477 162.512C14.6063 163.662 14.4554 165.029 14.1187 166.364C13.8865 167.276 12.6211 171.303 14.7688 171.053C15.1984 170.999 15.5234 170.651 15.8137 170.348C16.6612 169.479 17.8917 168.752 19.0991 169.067C19.8421 169.262 20.4342 169.87 20.5851 170.575C20.736 171.281 20.4226 172.051 19.8073 172.496C19.3777 172.8 18.8437 172.941 18.3561 173.137C17.4506 173.484 16.6379 174.016 15.9646 174.667C14.5831 175.687 13.5615 177.163 12.923 178.715C12.0755 180.788 11.8317 183.024 11.5879 185.227C13.9562 182.948 17.915 183.458 21.27 183.936C24.1956 184.348 28.5026 185.412 30.2324 182.329C30.7548 181.385 31.0799 180.105 32.1944 179.866C32.6472 181.342 31.9158 182.916 30.9638 184.174C30.4298 184.88 29.8261 185.542 29.2805 186.237C29.0134 186.584 28.1195 187.333 28.5259 187.832C28.6536 187.984 28.8625 188.027 29.0599 188.049C31.0567 188.342 33.2624 188.277 35.178 187.637C37.407 186.899 39.3573 185.01 39.3225 182.796C39.3109 182.069 39.0903 181.353 39.0439 180.625C38.7885 176.23 41.7605 176.436 43.3974 178.639C44.0591 179.518 44.5002 180.56 44.6279 181.624C44.6976 182.21 44.6047 182.807 44.4422 183.371C44.3261 183.816 43.8733 184.283 43.9662 184.761C44.21 185.954 46.3229 184.435 46.7873 184.185C47.8437 183.621 48.8189 182.926 49.7128 182.145C51.5587 180.539 53.0563 178.585 54.1476 176.469C55.0415 174.786 55.68 172.963 55.9122 171.096Z" fill="#3DC8A1"/>
<path d="M41.6792 159.494C38.0919 159.668 36.188 162.663 34.3421 165.203C31.3934 169.251 28.7697 173.017 24.5439 176.024C24.2537 176.23 24.4975 176.653 24.8341 176.49C27.8177 175.068 29.9538 172.605 31.8578 170.087C34.2957 166.863 37.1052 160.525 41.6676 159.972C41.9927 159.917 42.0159 159.472 41.6792 159.494Z" fill="#83F2D0"/>
<path d="M46.7641 174.048C46.59 173.213 46.3114 172.637 45.6612 172.041C45.4755 171.867 45.1504 172.095 45.2897 172.301C45.7193 172.833 45.9631 173.451 46.0211 174.135C46.0908 174.634 46.8686 174.548 46.7641 174.048Z" fill="#83F2D0"/>
<path d="M44.0709 169.968C43.235 168.633 42.0857 167.613 40.8667 166.581C39.1253 165.105 38.3475 163.77 37.9063 161.632C37.8483 161.361 37.4303 161.394 37.3491 161.632C36.1533 165.268 41.9464 167.786 43.7922 170.12C43.9083 170.282 44.1869 170.141 44.0709 169.968Z" fill="#83F2D0"/>
<path d="M35.6888 173.191C34.853 171.042 33.9358 168.709 34.6672 166.429C34.7601 166.126 34.2609 165.919 34.11 166.212C32.9491 168.47 34.6904 171.129 35.654 173.202C35.6656 173.223 35.6888 173.213 35.6888 173.191Z" fill="#83F2D0"/>
<path d="M20.5156 165.681C24.068 164.867 26.9239 166.571 30.2906 167.167C31.8695 167.45 33.2742 167.406 34.5396 166.451C34.9576 166.136 34.4235 165.615 34.0056 165.8C31.1381 167.059 28.5144 165.55 25.6701 165.149C23.8242 164.888 22.2222 164.932 20.4924 165.572C20.4227 165.605 20.4459 165.691 20.5156 165.681Z" fill="#83F2D0"/>
<path d="M29.8147 154.339C30.8711 155.066 31.7534 155.913 32.45 156.955C33.0421 157.834 33.193 158.767 33.5993 159.701C34.1798 161.036 35.6426 162.012 36.9428 162.718C37.7671 163.163 38.5217 161.969 37.6974 161.524C36.7222 160.992 35.6542 160.449 34.9808 159.57C34.4352 158.843 34.0985 157.964 33.5877 157.215C32.6822 155.88 31.4748 154.828 30.0237 154.014C29.7915 153.872 29.6057 154.187 29.8147 154.339Z" fill="#83F2D0"/>
<path d="M29.0136 177.261C29.7334 175.839 30.3138 174.103 29.7566 172.562C29.6637 172.29 29.269 172.355 29.2458 172.627C29.0832 174.168 29.1761 175.492 28.5028 176.979C28.3403 177.304 28.8395 177.597 29.0136 177.261Z" fill="#83F2D0"/>
<path d="M20.5272 319.568C20.5272 319.568 52.9172 327.436 88.4416 318.906V326.611H20.5272V319.568Z" fill="#69AAEC"/>
<path d="M19.3431 319.633C23.1858 320.848 27.1794 321.489 31.1846 321.988C36.1766 322.596 41.2034 322.932 46.2418 323.073C56.5161 323.356 66.8716 323.019 77.0529 321.695C79.3632 321.391 81.6618 321.044 83.9372 320.545C85.7947 320.132 87.687 319.687 89.4284 318.938C89.7999 318.776 89.5329 318.244 89.1614 318.331C85.5974 319.188 82.0333 319.904 78.3764 320.403C73.6166 321.055 68.8103 321.424 64.0157 321.662C53.7298 322.151 43.3511 322.086 33.0885 321.109C28.5493 320.675 23.9404 320.078 19.5521 318.895C19.0529 318.765 18.8555 319.481 19.3431 319.633Z" fill="#3479B2"/>
<path d="M149.483 242.89C149.483 242.89 149.03 296.082 149.901 302.279C150.76 308.476 155.717 374.431 155.717 374.431C155.717 374.431 161.766 375.571 163.983 374.409C165.121 365.325 167.547 329.922 168.081 303.028C166.781 298.057 178.506 243.357 178.506 243.357L149.483 242.89Z" fill="#F9AB87"/>
<path d="M178.507 250.857C178.507 250.857 188.467 287.855 194.423 301.856C200.379 315.867 231.341 366.096 232.304 368.223C237.168 368.549 239.78 365.38 239.78 365.38C239.78 365.38 224.909 312.275 210.56 296.668C208.749 286.509 204.604 243.498 204.604 243.498L178.507 250.857Z" fill="#F9AB87"/>
<path d="M187.62 195.147L182.593 224.56C182.593 224.56 182.013 227.707 181.13 232.558C179.575 241.002 177.09 254.612 175.047 265.704C173.793 272.552 172.725 278.435 172.156 281.561C170.136 292.642 168.836 296.494 170.299 316.052C171.762 335.609 166.433 364.945 166.433 364.945C157.169 366.422 153.674 365.021 153.674 365.021C153.674 365.021 149.646 322.282 148.462 304.949C147.301 287.617 147.115 279.998 146.894 258.085C146.662 236.162 149.356 204.514 149.356 204.514L187.62 195.147Z" fill="#004C80"/>
<path d="M181.13 232.558C179.574 241.002 177.09 254.612 175.047 265.704C167.779 248.697 166.444 221.293 166.444 221.293L181.13 232.558Z" fill="#332027"/>
<path d="M206.473 200.172C206.473 200.172 209.712 211.102 208.052 227.327C206.392 243.542 210.386 286.26 211.407 289.375C212.429 292.49 221.6 307.619 227.068 321.587C232.536 335.555 238.631 356.36 238.631 356.36C238.631 356.36 237.226 360.04 227.625 361.462C227.625 361.462 193.146 305.361 188.781 297.059C184.416 288.745 172.969 244.996 170.008 234.892C167.048 224.787 163.426 208.16 163.426 208.16" fill="#004C80"/>
<path d="M207.727 209.571C178.286 212.339 160.059 208.996 148.717 207.77C148.311 204.796 149.669 203.548 150.772 194.388C151.735 186.367 150.389 164.932 151.259 156.901C152.06 149.477 152.339 141.902 153.918 134.608C155.508 127.348 157.737 119.902 162.869 114.085C163.716 113.141 164.633 112.229 165.829 111.697C167.988 110.753 170.531 111.285 172.841 111.838C179.215 113.358 183.858 111.111 188.548 111.404C190.835 112.055 196.28 113.716 198.544 115.398C200.494 119.707 194.109 125.915 194.98 128.313C196.408 132.318 197.441 136.432 198.474 140.534L204.233 154.111C205.126 164.465 204.848 179.095 205.382 191.327C205.521 195.18 210.142 207.976 207.727 209.571Z" fill="#BDDBF3"/>
<path d="M166.061 109.776L160.675 159.44C158.446 163.912 158.329 172.377 144.329 177.12C141.809 178.227 138.954 178.748 135.807 179.226C136.341 172.779 132.243 166.473 129.817 165.442L138.594 160.298C141.287 150.573 142.657 135.184 146.941 124.233C149.576 117.493 153.802 113.597 166.061 109.776Z" fill="#BDDBF3"/>
<path d="M168.592 100.475C168.639 102.114 168.418 105.923 167.094 108.289C166.398 109.537 164.982 109.896 164.076 110.427C164.471 112.435 166.549 121.074 171.889 121.704C177.241 122.333 186.215 114.074 188.537 111.393C187.039 111.1 183.974 110.547 183.173 108.713C180.55 102.732 181.037 91.2715 181.571 89.6436" fill="#F49B6E"/>
<path d="M183.057 65.9401C186.041 70.0317 187.957 74.8614 188.107 79.8104C188.177 81.9485 187.91 84.0866 187.655 86.2138C187.26 89.5023 186.854 92.7908 186.459 96.0794C186.157 98.543 185.89 101.169 187.121 103.362C187.945 104.827 189.396 105.999 189.86 107.595C187.272 105.63 184.59 103.568 183.15 100.757C181.467 97.4903 181.676 93.6482 182.349 90.0775C183.023 86.5068 184.125 82.9687 184.091 79.3329" fill="#280A26"/>
<path d="M188.502 88.0482C188.247 90.6421 188.003 93.2578 188.409 95.83C188.816 98.4022 189.93 100.964 192.031 102.678C189.315 101.495 187.422 99.0316 186.471 96.3726C185.53 93.7136 185.437 90.8592 185.588 88.0591" fill="#280A26"/>
<path d="M149.344 75.9467C148.822 80.0818 152.235 83.6308 153.802 87.5271C154.882 90.2078 155.091 93.1165 155.787 95.8949C156.495 98.6842 157.854 101.528 160.489 103.004C162.718 104.252 165.516 104.295 168.081 103.839C174.049 102.776 179.424 99.0966 182.303 94.0824C185.182 89.0791 185.495 82.8494 183.139 77.6073C182.291 75.7188 181.119 73.9606 179.772 72.3435C176.312 68.1867 171.367 64.7897 165.748 64.323C160.129 63.8563 154.023 67.0146 152.653 72.1264" fill="#FFB082"/>
<path d="M158.039 62.5212C157.563 62.1847 156.983 62.4343 156.53 62.7491C151.503 66.1895 150.099 75.0023 157.215 76.9667C159.85 77.6939 162.66 77.4117 165.388 77.5854C167.977 77.7482 170.531 78.3234 172.922 79.2785C171.982 78.1172 170.821 77.1187 169.498 76.3481C172.052 76.3915 174.559 77.5311 176.161 79.3761C177.578 81.0041 178.425 83.2182 180.434 84.1515C181.304 82.0569 181.792 79.8211 181.862 77.5637C181.92 75.7295 181.676 73.8302 180.747 72.213C180.039 70.9866 178.959 69.9773 177.845 69.0548C175.279 66.9384 172.319 65.4298 169.869 63.2375C167.501 61.1211 163.147 59.1458 160.233 61.3924" fill="#280A26"/>
<path d="M156.809 63.3572C154.661 63.5959 152.711 64.703 151.167 66.1139C145.768 71.0521 144.596 79.192 150.598 84.1844C151.341 84.8031 153.129 85.8884 153.465 86.7783C151.689 82.1549 151.573 80.6463 151.712 77.4446C151.863 74.2538 154.371 71.1823 156.147 68.4582" fill="#280A26"/>
<path d="M161.406 96.0685C161.29 96.6111 161.975 99.0965 164.413 99.3461C166.456 99.5632 169.974 97.8267 169.324 96.0142C168.906 95.3413 161.522 95.5258 161.406 96.0685Z" fill="#DB7775"/>
<path d="M163.507 88.8729C163.426 89.2853 163.089 89.5024 162.741 89.7303C162.416 89.9474 162.079 90.2187 161.882 90.5443C161.627 90.9784 161.685 91.4994 161.952 91.9227C162.103 92.1506 162.312 92.3568 162.544 92.5087C162.799 92.6715 163.055 92.7475 163.356 92.7909C163.496 92.8126 163.635 92.6498 163.507 92.5521C163.298 92.3894 163.101 92.2374 162.88 92.0963C162.66 91.9552 162.462 91.8033 162.323 91.5754C162.091 91.2064 162.149 90.8156 162.428 90.49C162.857 89.9908 163.542 89.6001 163.6 88.8838C163.612 88.8295 163.519 88.8078 163.507 88.8729Z" fill="#DB7775"/>
<path d="M155.16 83.9233C155.636 83.0334 156.495 82.7512 157.482 84.3249C158.097 85.3125 158.515 87.353 156.971 87.7979C154.615 88.4708 154.382 85.3777 155.16 83.9233Z" fill="#471A12"/>
<path d="M155.137 84.9004C155.346 84.4988 155.729 84.3795 156.17 85.0741C156.449 85.5191 156.623 86.4199 155.938 86.6152C154.893 86.9191 154.789 85.5516 155.137 84.9004Z" fill="white"/>
<path d="M159.456 80.1134C158.341 78.8009 154.243 78.0633 153.663 80.2761C153.616 80.4713 153.86 80.6015 154.011 80.4713C154.766 79.8097 155.334 79.4083 156.437 79.4409C157.47 79.4734 158.422 79.8639 159.34 80.2652C159.432 80.3086 159.525 80.1893 159.456 80.1134Z" fill="#4F2118"/>
<path d="M169.974 82.1222C170.519 81.1671 171.483 80.8632 172.563 82.5238C173.248 83.5657 173.689 85.7255 171.959 86.203C169.324 86.941 169.091 83.6634 169.974 82.1222Z" fill="#471A12"/>
<path d="M169.939 83.153C170.183 82.7298 170.601 82.5995 171.088 83.3375C171.39 83.8042 171.587 84.7593 170.821 84.9655C169.649 85.2911 169.544 83.8476 169.939 83.153Z" fill="white"/>
<path d="M167.292 79.5172C168.604 79.1048 169.985 78.942 171.355 79.2024C172.679 79.4629 173.573 80.1467 174.71 80.7219C174.896 80.8087 175.14 80.6242 175.012 80.4397C173.422 78.204 169.474 78.0629 167.153 79.1807C166.967 79.2893 167.095 79.5823 167.292 79.5172Z" fill="#4F2118"/>
<path d="M169.207 90.7832C169.033 90.1646 169.207 89.47 169.927 88.7754C171.169 87.5815 173.271 87.1799 174.977 87.4296C175.732 87.5381 176.486 87.9288 176.8 88.5909C176.986 88.9924 176.997 89.4483 176.916 89.8824C176.637 91.4561 175.209 92.8345 173.491 93.0298C171.924 93.2143 169.649 92.3461 169.207 90.7832Z" fill="#F79386"/>
<path d="M155.497 91.6511C155.369 91.1627 155.462 90.62 155.88 90.0882C156.6 89.1766 157.865 88.9052 158.91 89.144C159.374 89.2525 159.839 89.5781 160.048 90.0991C160.176 90.4247 160.187 90.7828 160.152 91.1193C160.025 92.3565 159.2 93.4093 158.167 93.5287C157.215 93.6264 155.81 92.8883 155.497 91.6511Z" fill="#F79386"/>
<path d="M153.605 64.5183C153.535 63.6284 153.814 62.695 154.348 61.957C155.532 60.3181 157.552 59.4607 159.281 58.4514C165.388 54.9024 174.002 55.228 180.445 58.256C182.558 59.2545 186.401 62.2392 188.061 65.3106C198.73 85.0091 187.771 97.1213 184.067 97.0996C179.934 97.0779 179.04 92.9319 179.087 89.7954C179.133 87.0278 179.54 83.7067 177.462 81.4276C175.07 78.8011 173.689 75.3389 170.659 73.2334C169.37 72.3435 167.884 71.7357 166.386 71.193C164.146 70.379 161.836 69.8038 159.56 69.0875C157.784 68.534 156.019 67.8285 154.638 66.6347C153.988 66.0812 153.663 65.3106 153.605 64.5183Z" fill="#280A26"/>
<path d="M177.74 88.0153C177.311 87.1145 177.961 85.5951 178.356 85.2586C179.157 84.5857 180.41 84.7594 181.537 85.1067C182.221 85.3238 182.709 85.8881 183.069 86.4851C184.3 88.558 184.218 91.2713 182.86 93.2791C182.314 94.0931 181.513 94.8203 180.492 94.9722C179.482 95.1133 178.309 94.4513 178.298 93.4962" fill="#FFB082"/>
<path d="M93.5263 177.706C93.5263 177.706 89.2541 178.878 88.1976 179.66C87.6752 180.148 85.899 182.612 85.69 183.806C85.5159 184.804 86.3866 187.8 86.3866 187.8C86.3866 187.8 87.3618 188.223 87.919 186.942C88.4879 185.662 87.861 184.196 87.861 184.196L89.9622 181.982L93.5495 181.972L93.9558 179.747L93.5263 177.706Z" fill="#FFB082"/>
<path d="M87.5825 186.15C87.5825 186.15 89.4168 186.009 90.3339 185.195C91.251 184.381 97.2995 182.851 97.2995 182.851L92.7719 180.007C92.7719 180.007 89.2658 180.452 89.0569 180.637C88.8479 180.821 87.2807 181.961 87.2807 182.102C87.2807 182.243 86.9208 183.643 86.9208 183.643L87.5825 186.15Z" fill="#FFB082"/>
<path d="M84.9703 185.423C84.9703 185.423 87.2109 184.869 88.3022 187.55C88.3022 187.55 91.3903 186.79 91.7502 186.15C91.7502 186.15 92.7369 181.016 87.6753 178.618L84.9703 185.423Z" fill="#42C6A1"/>
<path d="M106.413 179.725L105.844 182.785C105.844 182.785 104.01 183.089 102.349 183.437C100.074 183.393 93.9327 181.635 92.261 182.004L93.538 177.717C94.1301 177.543 95.7438 177.218 96.1501 177.25C102.605 177.717 105.101 176.762 105.101 176.762L106.413 179.725Z" fill="#FFB082"/>
<path d="M95.2328 181.7C95.2328 181.7 93.8049 182.33 93.0503 183.665C92.1099 185.325 88.6271 186.128 87.7564 186.4C86.4098 186.823 85.9802 187.593 85.9802 187.778C85.9802 187.973 86.1311 188.158 86.8974 188.234C87.6636 188.31 90.891 188.212 91.959 188.071C93.0271 187.93 97.0671 186.335 98.0423 185.879C99.0059 185.423 102.338 183.426 102.338 183.426L98.4718 181.83L95.2328 181.7Z" fill="#FFB082"/>
<path d="M126.741 167.808L103.232 177.511L105.832 182.786C105.832 182.786 127.112 180.007 131.071 179.215C135.018 178.433 135.645 172.41 135.645 172.41L129.817 166.799L126.741 167.808Z" fill="#FFB082"/>
<path d="M172.063 121.161C171.367 125.698 170.925 130.289 170.728 134.88C170.635 137.17 170.624 139.471 170.728 141.761C170.775 142.9 170.844 144.051 170.96 145.19C171.065 146.297 171.169 147.502 171.552 148.555C171.657 148.859 172.133 148.804 172.144 148.479C172.214 147.361 172.04 146.178 171.947 145.06C171.866 143.92 171.796 142.77 171.773 141.63C171.715 139.384 171.761 137.126 171.854 134.88C172.04 130.332 172.539 125.796 172.76 121.248C172.771 120.879 172.121 120.792 172.063 121.161Z" fill="#598FB5"/>
<path d="M206.032 195.147C205.997 195.158 205.962 195.158 205.928 195.169C203.211 195.581 201.226 197.796 201.052 200.357L201.017 200.78C199.821 214.14 202.213 280.388 202.213 280.388C173.189 285.717 145.524 280.388 145.524 280.388C145.524 280.388 145.234 246.841 145.524 233.546C145.791 221.303 150.261 183.762 150.969 177.891C151.027 177.359 151.016 176.046 151.039 175.514C151.631 163.814 148.229 148.88 147.939 144.496C147.637 140.013 151.352 131.374 151.352 131.374C153.268 128.107 153.512 117.221 153.535 115.322H153.546C153.546 115.322 154.684 114.183 156.495 113.521C156.727 115.973 155.392 136.714 167.257 138.581C180.155 140.621 192.066 115.431 193.297 112.848C193.297 112.848 195.177 113.282 196.153 114.031C195.537 115.919 186.203 138.852 189.872 151.463C190.859 154.871 192.89 160.471 194.829 166.918C196.779 173.365 198.741 180.626 199.949 187.257C202.038 190.611 205.312 190.372 205.312 190.372C205.951 191.631 206.032 195.147 206.032 195.147Z" fill="#42A3E8"/>
<path d="M153.709 190.372C153.709 190.372 152.42 191.902 151.898 193.454C151.561 194.453 152.699 194.442 153.709 194.333C154.73 194.236 154.545 191.957 154.545 191.957L153.709 190.372Z" fill="#F29E8B"/>
<path d="M150.215 216.485L138.954 189.07C137.677 185.944 134.368 184.001 130.804 184.164C129.887 184.207 128.993 184.273 128.099 184.349H128.111C128.111 184.349 104.428 186.009 103.824 188.364C103.232 190.676 104.346 201.28 104.346 201.28C104.59 203.656 104.799 205.404 104.799 205.404L107.04 225.96C107.469 229.888 111.01 232.851 115.236 232.851C119.148 232.851 124.512 232.439 131.106 231.006C137.665 229.574 142.645 227.74 146.151 226.122C149.982 224.375 151.747 220.197 150.215 216.485Z" fill="#F7BF38"/>
<path d="M107.98 217.852C107.98 217.852 95.4536 210.602 84.0649 193.932C84.0649 193.932 82.2074 194.463 80.3267 196.015C80.3267 196.015 96.9628 223.876 110.755 227.207" fill="#F7BF38"/>
<path d="M149.588 217.678C148.903 217.83 148.171 217.928 147.417 217.961L147.266 215.247C151.851 215.03 154.591 212.132 155.404 206.662C156.913 196.558 151.271 183.545 147.37 182.297C140.846 180.213 136.341 187.409 136.144 187.713L133.625 186.367C135.622 183.089 141.264 177.478 148.311 179.725C154.324 181.646 159.815 196.699 158.271 207.031C157.401 212.936 154.336 216.647 149.588 217.678Z" fill="#F7BF38"/>
<path d="M105.321 192.011C108.34 193.064 111.927 192.966 115.096 192.836C119.74 192.651 124.419 191.935 128.877 190.698C131.373 190.003 134.054 189.2 136.248 187.854C136.411 187.756 136.307 187.474 136.109 187.55C133.961 188.353 131.872 189.243 129.643 189.884C127.367 190.535 125.046 191.034 122.7 191.425C118.544 192.109 114.26 192.467 110.035 192.271C108.502 192.195 106.9 192.076 105.426 191.642C105.17 191.566 105.078 191.924 105.321 192.011Z" fill="#FF6724"/>
<path d="M108.99 229.063C119.81 230.409 131.14 229.139 141.206 225.156C144.154 223.984 147.173 222.627 149.738 220.804C149.913 220.674 149.762 220.413 149.564 220.522C147.068 221.803 144.642 223.138 142.042 224.223C139.453 225.297 136.771 226.176 134.031 226.871C128.772 228.217 123.351 228.911 117.906 229.02C114.934 229.074 111.962 228.955 109.001 228.694C108.723 228.662 108.734 229.031 108.99 229.063Z" fill="#FF6724"/>
<path d="M190.348 175.514H186.296C186.296 175.514 171.065 185.477 165.109 188.364C162.323 189.721 160.907 188.994 158.55 188.961C157.598 188.95 156.646 189.015 155.717 189.167C155.717 189.167 156.077 190.079 156.054 190.687C156.019 191.587 155.021 192.456 153.918 192.879H153.93C153.454 193.096 152.653 193.422 152.525 193.639C152.142 194.322 152.339 195.071 153.001 195.538C153.001 195.538 152.687 196.189 152.978 196.743C153.221 197.199 153.663 197.383 153.663 197.383C153.663 197.383 153.43 197.958 153.639 198.479C153.848 199 154.464 199.282 154.464 199.282C154.464 199.282 154.057 199.825 154.382 200.335C154.789 200.965 156.82 200.867 158.678 200.4C162.811 199.358 166.978 194.974 170.09 193.932L190.615 186.931H192.797L194.249 185V180.658L190.348 175.514Z" fill="#FFB082"/>
<path d="M216.562 175.243C214.159 179.975 205.916 183.817 198.242 186.932C197.035 178.813 192.763 174.548 189.199 172.67C190.116 172.095 191.068 171.509 191.95 170.912C193.204 170.087 194.643 168.883 195.34 167.537C196.803 164.715 195.839 141.815 194.411 136.345L193.285 126.175L198.521 115.387C202.549 117.656 205.73 120.401 208.319 123.875C219.058 138.342 222.947 162.675 216.562 175.243Z" fill="#BDDBF3"/>
<path d="M138.895 169.642C138.791 169.469 138.686 169.328 138.582 169.197C136.724 166.05 133.671 163.651 131.233 163.879C129.887 164.009 128.9 164.661 128.203 165.399C127.658 165.561 126.857 165.931 126.729 166.799C126.52 168.21 126.729 167.797 126.729 167.797C131.233 167.938 132.684 171.867 133.184 175.221C133.683 178.574 131.059 179.215 131.059 179.215C131.059 179.215 132.046 181.244 135.18 180.485C135.18 180.485 137.224 180.669 138.953 179.714C139.975 179.161 142.1 174.667 138.895 169.642Z" fill="#96C2E0"/>
<path d="M198.451 177.348C198.347 177.175 198.242 177.034 198.138 176.903C196.28 173.756 193.227 171.357 190.789 171.585C189.442 171.716 188.455 172.367 187.759 173.105C187.225 173.268 186.412 173.637 186.285 174.505C186.076 175.916 186.285 175.503 186.285 175.503C190.789 175.644 192.24 179.573 192.739 182.927C193.238 186.281 190.615 186.921 190.615 186.921C190.615 186.921 191.602 188.95 194.736 188.191C194.736 188.191 196.779 188.375 198.509 187.42C199.531 186.867 201.655 182.373 198.451 177.348Z" fill="#96C2E0"/>
<path d="M188.421 111.22C187.515 111.675 186.819 112.37 186.064 113.01C185.228 113.727 184.415 114.486 183.58 115.214C181.943 116.625 180.259 117.981 178.344 119.045C177.322 119.62 176.254 120.119 175.116 120.477C174.048 120.825 172.934 121.139 171.808 120.879C169.683 120.369 168.406 118.524 167.466 116.831C166.305 114.736 165.365 112.533 164.61 110.275C164.389 109.613 163.275 109.896 163.496 110.558C164.239 112.707 165.144 114.823 166.247 116.842C167.245 118.665 168.418 120.597 170.438 121.574C172.62 122.626 174.977 121.834 177.055 120.933C179.319 119.946 181.327 118.535 183.185 116.983C184.195 116.147 185.17 115.268 186.134 114.389C187.074 113.531 188.107 112.609 188.688 111.491C188.804 111.317 188.618 111.122 188.421 111.22Z" fill="#598FB5"/>
<path d="M169.881 124.492C169.997 124.492 170.113 124.471 170.206 124.427C170.31 124.395 170.403 124.34 170.484 124.265C170.566 124.189 170.624 124.102 170.658 124.004C170.717 123.907 170.74 123.809 170.728 123.7C170.717 123.625 170.705 123.559 170.693 123.484C170.647 123.343 170.577 123.234 170.473 123.126C170.415 123.082 170.357 123.039 170.299 122.995C170.159 122.92 170.02 122.887 169.869 122.887C169.753 122.887 169.637 122.909 169.544 122.952C169.44 122.985 169.347 123.039 169.265 123.115C169.184 123.191 169.126 123.277 169.091 123.375C169.033 123.473 169.01 123.57 169.022 123.679C169.033 123.755 169.045 123.82 169.056 123.896C169.103 124.037 169.173 124.145 169.277 124.254C169.335 124.297 169.393 124.34 169.451 124.384C169.59 124.449 169.73 124.492 169.881 124.492Z" fill="#598FB5"/>
<path d="M169.114 132.275C170.345 132.275 170.345 130.484 169.114 130.484C167.884 130.484 167.872 132.275 169.114 132.275Z" fill="#598FB5"/>
<path d="M151.178 131.276C150.075 133.534 149.274 135.932 148.671 138.353C148.253 140.013 147.962 141.717 147.777 143.421C147.672 144.333 147.614 145.245 147.579 146.156C147.568 146.579 147.544 147.014 147.556 147.437C147.568 147.958 147.73 148.457 147.846 148.967C149.263 155.251 150.4 161.676 150.795 168.101C150.911 170.055 150.992 172.052 150.807 174.005C150.783 174.277 151.225 174.266 151.259 174.005C151.492 172.367 151.492 170.706 151.445 169.067C151.387 166.462 151.201 163.847 150.876 161.264C150.447 157.888 149.866 154.524 149.146 151.192C148.961 150.346 148.763 149.499 148.566 148.652C148.311 147.556 148.311 146.514 148.369 145.407C148.45 143.606 148.671 141.815 149.007 140.035C149.553 137.126 150.296 134.207 151.55 131.494C151.642 131.244 151.283 131.049 151.178 131.276Z" fill="#396F91"/>
<path d="M193.691 131.754C193.703 133.176 193.935 134.619 194.063 136.03C194.318 138.819 194.597 141.619 194.841 144.409C195.41 150.942 195.827 157.519 195.537 164.075C195.41 166.972 194.33 169.664 191.451 170.988C191.184 171.108 191.416 171.466 191.683 171.357C193.854 170.467 195.212 168.763 195.816 166.625C196.257 165.062 196.35 163.38 196.408 161.774C196.466 160.102 196.454 158.431 196.42 156.771C196.257 150.215 195.618 143.649 194.783 137.148C194.55 135.368 194.191 133.566 194.133 131.776C194.109 131.504 193.691 131.504 193.691 131.754Z" fill="#598FB5"/>
<path d="M137.827 73.2773C134.019 74.6122 122.607 79.0294 123.536 80.5706C124.465 82.1118 194.678 73.7114 209.41 70.1298C209.41 70.1298 215.377 67.4925 189.872 67.0692C163.553 66.6243 150.11 68.9577 137.827 73.2773Z" fill="#F7BF38"/>
<path d="M145.814 73.1362C145.814 73.1362 145.814 59.6566 157.818 55.7277C169.672 51.8423 186.331 54.3711 189.674 67.6662L145.814 73.1362Z" fill="#F7BF38"/>
<path d="M145.722 71.2477C147.242 71.7904 148.914 71.9749 150.516 72.1268C153.059 72.3656 155.624 72.4307 158.19 72.4307C164.947 72.4199 171.738 71.747 178.355 70.4663C180.282 70.0973 182.21 69.6631 184.102 69.153C185.959 68.6647 187.921 68.1111 189.64 67.2646C189.953 67.1126 189.732 66.6677 189.407 66.7436C187.678 67.1344 185.983 67.677 184.276 68.1328C182.593 68.5778 180.898 68.9577 179.191 69.2941C175.778 69.967 172.33 70.4446 168.859 70.8027C163.077 71.3888 157.168 71.6601 151.352 71.3128C149.553 71.2043 147.637 71.1283 145.907 70.6291C145.466 70.488 145.304 71.0958 145.722 71.2477Z" fill="#932318"/>
</svg>
