<?xml version="1.0" encoding="UTF-8" standalone="no"?>
<!-- Created with Inkscape (http://www.inkscape.org/) -->

<svg
   width="210mm"
   height="297mm"
   viewBox="0 0 210 297"
   version="1.1"
   id="svg5"
   xml:space="preserve"
   inkscape:version="1.2.2 (732a01da63, 2022-12-09)"
   sodipodi:docname="logo.svg"
   xmlns:inkscape="http://www.inkscape.org/namespaces/inkscape"
   xmlns:sodipodi="http://sodipodi.sourceforge.net/DTD/sodipodi-0.dtd"
   xmlns="http://www.w3.org/2000/svg"
   xmlns:svg="http://www.w3.org/2000/svg"><sodipodi:namedview
     id="namedview7"
     pagecolor="#ffffff"
     bordercolor="#000000"
     borderopacity="0.25"
     inkscape:showpageshadow="2"
     inkscape:pageopacity="0.0"
     inkscape:pagecheckerboard="0"
     inkscape:deskcolor="#d1d1d1"
     inkscape:document-units="mm"
     showgrid="false"
     inkscape:zoom="0.27622351"
     inkscape:cx="506.83594"
     inkscape:cy="1607.394"
     inkscape:window-width="1920"
     inkscape:window-height="1057"
     inkscape:window-x="1912"
     inkscape:window-y="-8"
     inkscape:window-maximized="1"
     inkscape:current-layer="svg5"><inkscape:page
       x="0"
       y="0"
       width="210"
       height="297"
       id="page358" /><inkscape:page
       x="220"
       y="0"
       width="381"
       height="381"
       id="page360" /><inkscape:page
       x="611"
       y="0"
       width="380.99997"
       height="381"
       id="page397" /></sodipodi:namedview><defs
     id="defs2"><clipPath
       clipPathUnits="userSpaceOnUse"
       id="clipPath200"><path
         d="M 0,1080 H 1080 V 0 H 0 Z"
         id="path198" /></clipPath><clipPath
       clipPathUnits="userSpaceOnUse"
       id="clipPath224"><path
         d="M 0,1080 H 1080 V 0 H 0 Z"
         id="path222" /></clipPath><clipPath
       clipPathUnits="userSpaceOnUse"
       id="clipPath280"><path
         d="M 0,1080 H 1080 V 0 H 0 Z"
         id="path278" /></clipPath><clipPath
       clipPathUnits="userSpaceOnUse"
       id="clipPath304"><path
         d="M 0,1080 H 1080 V 0 H 0 Z"
         id="path302" /></clipPath></defs><g
     inkscape:label="Camada 1"
     inkscape:groupmode="layer"
     id="layer1" /><path
     d="M 220,381.00001 H 600.99998 V 9.5250002e-6 H 220 Z"
     style="fill:#623f1f;fill-opacity:1;fill-rule:nonzero;stroke:none;stroke-width:0.352778"
     id="path192" /><g
     id="g194"
     transform="matrix(0.35277776,0,0,-0.35277778,220,381.00001)"><g
       id="g196"
       clip-path="url(#clipPath200)"><g
         id="g202"
         transform="translate(482.9092,318.1406)"
         style="display:inline"><path
           d="m 0,0 h -181.415 v 221.649 c -28.315,0 -84.537,1.888 -84.933,2.832 102.457,87.585 204.914,175.171 308.454,263.682 28.762,-24.438 57.151,-48.562 87.933,-74.716 0,14.338 0.178,26.067 -0.049,37.787 -0.251,13.041 0.383,13.806 13.66,13.727 22.373,-0.133 44.745,-0.36 67.116,-0.244 6.561,0.035 9.284,-1.369 9.183,-9.038 -0.494,-36.835 0.02,-73.68 -0.361,-110.517 -0.076,-7.703 3.584,-12.099 8.791,-16.537 39.017,-33.257 116.246,-107.147 113.728,-107.155 -22.681,-0.069 -45.369,-0.345 -68.041,0.146 -6.853,0.148 -8.718,-2.005 -8.693,-8.475 0.186,-50.363 0.131,-100.726 0.147,-151.089 0.005,-20.396 0,-40.787 0,-61.956 H 96.754 c 8.603,12.572 17.08,23.425 23.838,35.262 6.801,11.917 13.348,24.354 17.452,37.369 12.325,39.085 9.472,77.315 -8.523,114.548 -29.738,61.532 -79.116,99.2 -142.954,119.953 -7.315,2.376 -11.478,0.417 -15.535,-5.949 -9.676,-15.189 -21.383,-29.213 -29.886,-44.991 -13.638,-25.298 -18.221,-52.903 -18.167,-81.817 0.042,-23.576 3.792,-46.451 10.822,-68.351 C -54.3,69.047 -36.297,35.042 -4.315,10.707 -0.566,7.857 3.959,6.029 8.422,4.115 9.985,3.444 11.543,2.763 13.058,2.022 13.097,1.349 4.393,0 0,0 Z"
           style="display:inline;fill:none;stroke:#ffffff;stroke-width:4;stroke-linecap:butt;stroke-linejoin:miter;stroke-miterlimit:10;stroke-dasharray:none;stroke-opacity:1"
           id="path204" /></g><g
         id="g206"
         transform="translate(504.3301,535.3271)"
         style="display:inline"><path
           d="M 0,0 C 60.902,-60.717 62.647,-138.161 62.415,-216.488 H 37.511 C 39.816,-141.275 42.307,-66.83 0,0 Z"
           style="display:inline;fill:none;stroke:#ffffff;stroke-width:4;stroke-linecap:butt;stroke-linejoin:miter;stroke-miterlimit:10;stroke-dasharray:none;stroke-opacity:1"
           id="path208" /></g><g
         id="g210"
         transform="translate(492.958,321.5498)"
         style="display:inline"><path
           d="m 0,0 8.399,-2.711 -21.28,-0.698"
           style="fill:none;stroke:#ffffff;stroke-width:4;stroke-linecap:butt;stroke-linejoin:miter;stroke-miterlimit:10;stroke-dasharray:none;stroke-opacity:1"
           id="path212" /></g></g></g><text
     xml:space="preserve"
     transform="scale(0.96945515,1.0315072)"
     style="font-variant:normal;font-weight:normal;font-stretch:normal;font-size:36.48px;font-family:'Cammron Demo';-inkscape-font-specification:CammronDemo;writing-mode:lr-tb;display:none;fill:#ffffff;fill-opacity:1;fill-rule:nonzero;stroke:none;stroke-width:0.342002"
     id="text216"
     x="306.67459"
     y="297.75269"><tspan
       x="306.67459 326.73868 349.97656 372.22946 394.48239 417.72028 426.76733 455.62317 478.86105 501.55173 518.22314"
       y="297.75269"
       sodipodi:role="line"
       id="tspan214"
       style="stroke-width:0.342002">BARRA MANSA</tspan></text><g
     id="g218"
     transform="matrix(0.35277776,0,0,-0.35277778,220,381.00001)"
     style="display:inline"><g
       id="g220"
       clip-path="url(#clipPath224)"
       style="display:inline"><g
         id="g226"
         transform="translate(224.9531,282.6641)"><path
           d="m 0,0 c 1.336,-0.144 2.438,-0.766 3.309,-1.867 0.867,-1.104 1.302,-2.472 1.302,-4.107 v -59.839 c 0,-1.637 -0.435,-3.005 -1.302,-4.107 C 2.438,-71.023 1.336,-71.646 0,-71.787 l -0.802,-0.107 v -1.173 h 30.777 c 3.542,0 6.782,0.497 9.724,1.494 2.94,0.995 5.496,2.399 7.669,4.213 2.171,1.813 3.86,3.964 5.063,6.453 1.203,2.488 1.804,5.226 1.804,8.214 0,2.488 -0.568,4.816 -1.704,6.986 -1.137,2.168 -2.724,4.106 -4.761,5.813 -2.041,1.707 -4.479,3.128 -7.319,4.267 -2.842,1.137 -5.965,1.955 -9.374,2.453 5.213,1.067 9.424,3.163 12.632,6.294 3.208,3.128 4.812,6.897 4.812,11.307 0,2.488 -0.536,4.762 -1.604,6.826 -1.07,2.061 -2.557,3.84 -4.461,5.333 -1.905,1.494 -4.16,2.648 -6.768,3.467 -2.606,0.817 -5.447,1.226 -8.52,1.226 h -28.07 l 0.1,-1.173 z m 19.821,-32.96 h -8.893 v 32.426 h 16.088 c 2.198,0 4.212,-0.373 6.045,-1.119 1.833,-0.747 3.415,-1.797 4.748,-3.148 1.331,-1.351 2.363,-2.951 3.096,-4.8 0.733,-1.849 1.1,-3.876 1.1,-6.08 0,-2.418 -0.434,-4.676 -1.301,-6.773 -0.866,-2.098 -2.081,-3.93 -3.646,-5.493 -1.567,-1.565 -3.448,-2.774 -5.645,-3.626 -2.199,-0.854 -4.598,-1.281 -7.195,-1.281 z m 2.435,-1.174 c 3.675,0 7.05,-0.463 10.125,-1.387 3.073,-0.924 5.729,-2.205 7.97,-3.839 2.238,-1.637 3.975,-3.592 5.212,-5.867 1.237,-2.277 1.855,-4.765 1.855,-7.466 0,-2.703 -0.451,-5.193 -1.354,-7.467 -0.902,-2.277 -2.155,-4.25 -3.758,-5.92 -1.605,-1.672 -3.527,-2.97 -5.765,-3.894 -2.24,-0.924 -4.661,-1.386 -7.268,-1.386 H 10.928 v 37.226 z"
           style="fill:none;stroke:#ffffff;stroke-width:1;stroke-linecap:butt;stroke-linejoin:miter;stroke-miterlimit:10;stroke-dasharray:none;stroke-opacity:1"
           id="path228" /></g><g
         id="g230"
         transform="translate(343.1475,209.5967)"><path
           d="m 0,0 v 1.174 c -2.875,0 -5.147,1.848 -6.817,5.547 L -31.98,76.054 h -1.604 L -56.742,6.507 C -57.479,4.801 -58.463,3.537 -59.699,2.721 -60.937,1.902 -62.355,1.387 -63.96,1.174 V 0 h 15.238 v 1.174 l -1.203,0.106 c -1.738,0.142 -3.008,0.817 -3.809,2.027 -0.802,1.209 -1.003,2.737 -0.602,4.587 l 6.115,18.667 h 27.368 l 6.818,-19.307 c 0.601,-1.637 0.566,-3.005 -0.101,-4.107 -0.669,-1.103 -1.771,-1.725 -3.308,-1.867 L -19.148,1.174 -18.947,0 Z m -47.72,28.267 12.733,38.827 13.533,-38.827 z"
           style="fill:none;stroke:#ffffff;stroke-width:1;stroke-linecap:butt;stroke-linejoin:miter;stroke-miterlimit:10;stroke-dasharray:none;stroke-opacity:1"
           id="path232" /></g><g
         id="g234"
         transform="translate(343.1475,282.877)"><path
           d="M 0,0 0.802,-0.106 C 2.138,-0.25 3.24,-0.872 4.11,-1.974 4.978,-3.076 5.413,-4.445 5.413,-6.08 v -59.84 c 0,-1.637 -0.435,-3.005 -1.303,-4.106 -0.87,-1.104 -1.972,-1.726 -3.308,-1.868 L 0,-72 v -1.173 H 17.443 V -72 l -0.801,0.106 c -1.338,0.142 -2.441,0.764 -3.309,1.868 -0.869,1.101 -1.304,2.469 -1.304,4.106 v 28.373 h 11.392 c 1.397,-1.849 3.763,-4.836 7.093,-8.96 3.33,-4.125 7.261,-8.996 11.792,-14.613 2.205,-2.774 4.009,-4.943 5.413,-6.507 1.403,-1.564 2.656,-2.738 3.76,-3.519 1.102,-0.784 2.205,-1.281 3.307,-1.494 1.103,-0.214 2.456,-0.32 4.061,-0.32 h 2.405 v 1.387 c -0.802,0 -1.453,0.07 -1.954,0.214 -0.502,0.141 -1.07,0.496 -1.704,1.066 -0.637,0.568 -1.472,1.475 -2.507,2.72 -1.037,1.243 -2.456,2.969 -4.261,5.174 -4.946,6.186 -9.222,11.554 -12.832,16.106 -3.608,4.55 -6.082,7.68 -7.418,9.387 2.873,0.427 5.496,1.208 7.869,2.346 2.372,1.137 4.411,2.541 6.116,4.213 1.704,1.67 3.023,3.574 3.96,5.707 0.935,2.133 1.403,4.409 1.403,6.827 0,2.773 -0.551,5.334 -1.653,7.68 -1.104,2.347 -2.625,4.355 -4.562,6.027 C 41.77,-2.437 39.464,-1.12 36.791,-0.16 34.117,0.8 31.21,1.28 28.069,1.28 L 0,0.96 Z m 11.93,-35.733 v 35.306 h 16.088 c 2.198,0 4.212,-0.445 6.045,-1.333 1.833,-0.89 3.415,-2.098 4.748,-3.627 1.331,-1.53 2.363,-3.36 3.096,-5.493 0.734,-2.134 1.1,-4.48 1.1,-7.04 0,-2.559 -0.449,-4.943 -1.349,-7.146 -0.899,-2.205 -2.149,-4.107 -3.748,-5.707 -1.599,-1.6 -3.515,-2.845 -5.746,-3.734 -2.231,-0.889 -4.647,-1.333 -7.244,-1.333 v 0.107 z"
           style="fill:none;stroke:#ffffff;stroke-width:1;stroke-linecap:butt;stroke-linejoin:miter;stroke-miterlimit:10;stroke-dasharray:none;stroke-opacity:1"
           id="path236" /></g><g
         id="g238"
         transform="translate(404.2988,282.877)"><path
           d="M 0,0 0.802,-0.106 C 2.138,-0.25 3.24,-0.872 4.11,-1.974 4.978,-3.076 5.413,-4.445 5.413,-6.08 v -59.84 c 0,-1.637 -0.435,-3.005 -1.303,-4.106 -0.87,-1.104 -1.972,-1.726 -3.308,-1.868 L 0,-72 v -1.173 H 17.443 V -72 l -0.801,0.106 c -1.338,0.142 -2.441,0.764 -3.309,1.868 -0.869,1.101 -1.304,2.469 -1.304,4.106 v 28.373 h 11.392 c 1.397,-1.849 3.763,-4.836 7.093,-8.96 3.33,-4.125 7.261,-8.996 11.792,-14.613 2.205,-2.774 4.009,-4.943 5.413,-6.507 1.403,-1.564 2.656,-2.738 3.76,-3.519 1.102,-0.784 2.205,-1.281 3.307,-1.494 1.103,-0.214 2.456,-0.32 4.061,-0.32 h 2.405 v 1.387 c -0.802,0 -1.453,0.07 -1.954,0.214 -0.502,0.141 -1.07,0.496 -1.704,1.066 -0.637,0.568 -1.472,1.475 -2.507,2.72 -1.037,1.243 -2.456,2.969 -4.261,5.174 -4.946,6.186 -9.222,11.554 -12.832,16.106 -3.608,4.55 -6.082,7.68 -7.418,9.387 2.873,0.427 5.496,1.208 7.869,2.346 2.372,1.137 4.411,2.541 6.116,4.213 1.704,1.67 3.023,3.574 3.96,5.707 0.935,2.133 1.403,4.409 1.403,6.827 0,2.773 -0.551,5.334 -1.653,7.68 -1.104,2.347 -2.625,4.355 -4.562,6.027 C 41.77,-2.437 39.464,-1.12 36.791,-0.16 34.117,0.8 31.21,1.28 28.069,1.28 L 0,0.96 Z m 11.93,-35.733 v 35.306 h 16.088 c 2.198,0 4.212,-0.445 6.045,-1.333 1.833,-0.89 3.415,-2.098 4.748,-3.627 1.331,-1.53 2.363,-3.36 3.096,-5.493 0.734,-2.134 1.1,-4.48 1.1,-7.04 0,-2.559 -0.449,-4.943 -1.349,-7.146 -0.899,-2.205 -2.149,-4.107 -3.748,-5.707 -1.599,-1.6 -3.515,-2.845 -5.746,-3.734 -2.231,-0.889 -4.647,-1.333 -7.244,-1.333 v 0.107 z"
           style="fill:none;stroke:#ffffff;stroke-width:1;stroke-linecap:butt;stroke-linejoin:miter;stroke-miterlimit:10;stroke-dasharray:none;stroke-opacity:1"
           id="path240" /></g><g
         id="g242"
         transform="translate(529.3096,209.5967)"><path
           d="m 0,0 v 1.174 c -2.875,0 -5.147,1.848 -6.817,5.547 L -31.98,76.054 h -1.604 L -56.742,6.507 C -57.479,4.801 -58.463,3.537 -59.699,2.721 -60.937,1.902 -62.355,1.387 -63.96,1.174 V 0 h 15.238 v 1.174 l -1.203,0.106 c -1.738,0.142 -3.008,0.817 -3.809,2.027 -0.802,1.209 -1.003,2.737 -0.602,4.587 l 6.115,18.667 h 27.368 l 6.818,-19.307 c 0.601,-1.637 0.566,-3.005 -0.101,-4.107 -0.669,-1.103 -1.771,-1.725 -3.308,-1.867 L -19.148,1.174 -18.947,0 Z m -47.72,28.267 12.733,38.827 13.533,-38.827 z"
           style="fill:none;stroke:#ffffff;stroke-width:1;stroke-linecap:butt;stroke-linejoin:miter;stroke-miterlimit:10;stroke-dasharray:none;stroke-opacity:1"
           id="path244" /></g><g
         id="g246"
         transform="translate(616.2246,209.5967)"><path
           d="M 0,0 H 17.243 V 1.174 L 16.44,1.28 C 15.17,1.422 14.085,1.99 13.183,2.987 12.28,3.982 11.762,5.228 11.629,6.721 L 9.122,67.094 c -0.067,1.635 0.301,3.003 1.104,4.106 0.801,1.102 1.87,1.724 3.208,1.867 l 0.701,0.107 v 1.173 H 3.007 L -22.155,7.574 -22.256,7.681 -49.123,74.347 h -10.426 v -1.173 l 0.802,-0.107 c 1.203,-0.143 2.206,-0.676 3.008,-1.6 0.801,-0.925 1.268,-2.098 1.403,-3.52 L -56.44,7.254 C -56.575,5.617 -57.06,4.249 -57.895,3.147 -58.731,2.044 -59.816,1.422 -61.152,1.28 L -61.955,1.174 V 0 h 15.339 V 1.174 L -48.02,1.28 c -1.939,0.142 -3.493,0.87 -4.662,2.187 -1.17,1.315 -1.721,3.004 -1.654,5.067 l 2.005,57.386 c 4.612,-11.164 9.156,-22.258 13.635,-33.279 4.476,-11.024 9.022,-22.08 13.634,-33.174 h 1.603 L 3.408,69.014 5.514,6.507 C 5.379,5.084 4.912,3.894 4.11,2.934 3.308,1.974 2.306,1.422 1.103,1.28 L 0.301,1.174 0,1.28 Z"
           style="fill:none;stroke:#ffffff;stroke-width:1;stroke-linecap:butt;stroke-linejoin:miter;stroke-miterlimit:10;stroke-dasharray:none;stroke-opacity:1"
           id="path248" /></g><g
         id="g250"
         transform="translate(697.3262,209.5967)"><path
           d="m 0,0 v 1.174 c -2.875,0 -5.147,1.848 -6.817,5.547 L -31.98,76.054 h -1.604 L -56.742,6.507 C -57.479,4.801 -58.463,3.537 -59.699,2.721 -60.937,1.902 -62.355,1.387 -63.96,1.174 V 0 h 15.238 v 1.174 l -1.203,0.106 c -1.738,0.142 -3.008,0.817 -3.809,2.027 -0.802,1.209 -1.003,2.737 -0.602,4.587 l 6.115,18.667 h 27.368 l 6.818,-19.307 c 0.601,-1.637 0.566,-3.005 -0.101,-4.107 -0.669,-1.103 -1.771,-1.725 -3.308,-1.867 L -19.148,1.174 -18.947,0 Z m -47.72,28.267 12.733,38.827 13.533,-38.827 z"
           style="fill:none;stroke:#ffffff;stroke-width:1;stroke-linecap:butt;stroke-linejoin:miter;stroke-miterlimit:10;stroke-dasharray:none;stroke-opacity:1"
           id="path252" /></g><g
         id="g254"
         transform="translate(698.1279,282.6641)"><path
           d="m 0,0 c 1.336,-0.144 2.438,-0.766 3.309,-1.867 0.867,-1.104 1.302,-2.472 1.302,-4.107 v -59.839 c 0,-1.637 -0.435,-3.005 -1.302,-4.107 C 2.438,-71.023 1.336,-71.646 0,-71.787 l -0.802,-0.107 v -1.173 H 12.13 v 1.173 l -0.802,0.107 c -1.338,0.141 -2.44,0.764 -3.308,1.867 -0.87,1.102 -1.303,2.47 -1.303,4.107 v 61.226 c 7.952,-11.733 15.872,-23.344 23.759,-34.827 7.885,-11.484 15.772,-23.093 23.659,-34.826 h 2.005 v 68.373 c 0,1.635 0.434,3.004 1.303,4.106 0.868,1.102 1.971,1.724 3.308,1.867 l 0.803,0.107 V 1.387 H 48.621 V 0.213 l 0.802,-0.107 c 1.337,-0.143 2.439,-0.765 3.308,-1.867 0.869,-1.102 1.304,-2.471 1.304,-4.106 V -63.146 L 10.226,1.387 H -1.003 l 0.201,-1.281 z"
           style="fill:none;stroke:#ffffff;stroke-width:1;stroke-linecap:butt;stroke-linejoin:miter;stroke-miterlimit:10;stroke-dasharray:none;stroke-opacity:1"
           id="path256" /></g><g
         id="g258"
         transform="translate(801.7842,278.8232)"><path
           d="m 0,0 c -1.338,0.854 -2.841,1.617 -4.511,2.294 -1.672,0.675 -3.409,1.262 -5.213,1.76 -1.804,0.497 -3.609,0.888 -5.414,1.174 -1.804,0.283 -3.508,0.425 -5.112,0.425 -3.008,0 -5.782,-0.516 -8.321,-1.546 -2.54,-1.032 -4.746,-2.471 -6.617,-4.32 -1.872,-1.85 -3.325,-4.054 -4.36,-6.613 -1.037,-2.56 -1.555,-5.333 -1.555,-8.32 0,-1.992 0.502,-3.965 1.504,-5.92 1.003,-1.956 2.372,-3.805 4.111,-5.547 1.737,-1.743 3.809,-3.307 6.216,-4.694 2.405,-1.385 5.044,-2.506 7.919,-3.359 3.007,-0.854 5.764,-1.957 8.271,-3.307 2.506,-1.351 4.677,-2.844 6.516,-4.48 1.837,-1.637 3.274,-3.343 4.31,-5.12 1.036,-1.779 1.555,-3.557 1.555,-5.333 0,-2.205 -0.419,-4.232 -1.254,-6.08 -0.836,-1.85 -1.972,-3.451 -3.408,-4.8 -1.438,-1.352 -3.158,-2.401 -5.163,-3.147 -2.005,-0.747 -4.21,-1.12 -6.617,-1.12 -1.603,0 -3.275,0.088 -5.012,0.267 -1.739,0.177 -3.476,0.443 -5.213,0.8 -2.54,0.71 -4.98,2.133 -7.319,4.266 -2.339,2.134 -4.11,4.587 -5.312,7.361 -0.201,0.426 -0.401,0.922 -0.602,1.493 -0.201,0.568 -0.401,1.066 -0.601,1.493 h -0.902 v -11.84 c 1.335,-0.853 2.957,-1.618 4.862,-2.293 1.904,-0.677 3.959,-1.264 6.165,-1.761 2.205,-0.498 4.511,-0.889 6.917,-1.172 2.406,-0.284 4.745,-0.427 7.017,-0.427 3.008,0 5.781,0.48 8.322,1.44 2.539,0.96 4.744,2.31 6.616,4.053 1.87,1.742 3.323,3.822 4.36,6.24 1.036,2.417 1.554,5.048 1.554,7.894 0,2.133 -0.501,4.248 -1.503,6.346 -1.003,2.097 -2.391,4.053 -4.161,5.867 -1.772,1.813 -3.894,3.466 -6.365,4.96 -2.474,1.493 -5.181,2.667 -8.12,3.52 -2.943,0.854 -5.649,1.92 -8.121,3.2 -2.473,1.28 -4.612,2.666 -6.416,4.159 -1.804,1.495 -3.208,3.076 -4.211,4.748 -1.002,1.669 -1.503,3.288 -1.503,4.853 0,2.416 0.418,4.621 1.256,6.613 0.836,1.991 1.977,3.715 3.418,5.173 1.441,1.457 3.165,2.596 5.177,3.414 2.011,0.817 4.189,1.227 6.535,1.227 2.882,0 6.132,-0.606 9.75,-1.814 1.408,-0.57 2.748,-1.493 4.022,-2.773 1.273,-1.28 2.246,-2.667 2.917,-4.16 l 3.014,-7.04 L 0,-11.84 Z"
           style="fill:none;stroke:#ffffff;stroke-width:1;stroke-linecap:butt;stroke-linejoin:miter;stroke-miterlimit:10;stroke-dasharray:none;stroke-opacity:1"
           id="path260" /></g><g
         id="g262"
         transform="translate(869.3525,209.5967)"><path
           d="m 0,0 v 1.174 c -2.875,0 -5.147,1.848 -6.817,5.547 L -31.98,76.054 h -1.604 L -56.742,6.507 C -57.479,4.801 -58.463,3.537 -59.699,2.721 -60.937,1.902 -62.355,1.387 -63.96,1.174 V 0 h 15.238 v 1.174 l -1.203,0.106 c -1.738,0.142 -3.008,0.817 -3.809,2.027 -0.802,1.209 -1.003,2.737 -0.602,4.587 l 6.115,18.667 h 27.368 l 6.818,-19.307 c 0.601,-1.637 0.566,-3.005 -0.101,-4.107 -0.669,-1.103 -1.771,-1.725 -3.308,-1.867 L -19.148,1.174 -18.947,0 Z m -47.72,28.267 12.733,38.827 13.533,-38.827 z"
           style="fill:none;stroke:#ffffff;stroke-width:1;stroke-linecap:butt;stroke-linejoin:miter;stroke-miterlimit:10;stroke-dasharray:none;stroke-opacity:1"
           id="path264" /></g><g
         id="g266"
         transform="translate(811.6445,553.8096)"><path
           d="M 0,0 13.372,-14.199 H -14.03"
           style="fill:none;stroke:#ffffff;stroke-width:2;stroke-linecap:butt;stroke-linejoin:miter;stroke-miterlimit:10;stroke-dasharray:none;stroke-opacity:1"
           id="path268" /></g></g></g><g
     id="g274"
     transform="matrix(0.35277776,0,0,-0.35277778,611,381.00001)"><g
       id="g276"
       clip-path="url(#clipPath280)"><g
         id="g282"
         transform="translate(495.5498,313.1406)"><path
           d="m 0,0 h -181.415 v 221.649 c -28.315,0 -84.537,1.888 -84.933,2.832 102.457,87.585 204.914,175.171 308.454,263.682 28.762,-24.438 57.151,-48.562 87.933,-74.716 0,14.338 0.178,26.067 -0.049,37.787 -0.251,13.041 0.383,13.806 13.66,13.727 22.373,-0.133 44.745,-0.36 67.116,-0.244 6.561,0.035 9.284,-1.369 9.183,-9.038 -0.494,-36.835 0.02,-73.68 -0.361,-110.517 -0.076,-7.703 3.584,-12.099 8.791,-16.537 39.017,-33.257 116.246,-107.147 113.728,-107.155 -22.681,-0.069 -45.369,-0.345 -68.041,0.146 -6.853,0.148 -8.718,-2.005 -8.693,-8.475 0.186,-50.363 0.131,-100.726 0.147,-151.089 0.005,-20.396 0,-40.787 0,-61.956 H 96.754 c 8.603,12.572 17.08,23.425 23.838,35.262 6.801,11.917 13.348,24.354 17.452,37.369 12.325,39.085 9.472,77.315 -8.523,114.548 -29.738,61.532 -79.116,99.2 -142.954,119.953 -7.315,2.376 -11.478,0.417 -15.535,-5.949 -9.676,-15.189 -21.383,-29.213 -29.886,-44.991 -13.638,-25.298 -18.221,-52.903 -18.167,-81.817 0.042,-23.576 3.792,-46.451 10.822,-68.351 C -54.3,69.047 -36.297,35.042 -4.315,10.707 -0.566,7.857 3.959,6.029 8.422,4.115 9.985,3.444 11.543,2.763 13.058,2.022 13.097,1.349 4.393,0 0,0 Z"
           style="fill:none;stroke:#231f20;stroke-width:4;stroke-linecap:butt;stroke-linejoin:miter;stroke-miterlimit:10;stroke-dasharray:none;stroke-opacity:1"
           id="path284" /></g><g
         id="g286"
         transform="translate(516.9707,530.3271)"><path
           d="M 0,0 C 60.902,-60.717 62.647,-138.161 62.415,-216.488 H 37.511 C 39.816,-141.275 42.307,-66.83 0,0 Z"
           style="fill:none;stroke:#231f20;stroke-width:4;stroke-linecap:butt;stroke-linejoin:miter;stroke-miterlimit:10;stroke-dasharray:none;stroke-opacity:1"
           id="path288" /></g><g
         id="g290"
         transform="translate(505.5986,316.5498)"><path
           d="m 0,0 8.399,-2.711 -21.28,-0.698"
           style="fill:none;stroke:#231f20;stroke-width:4;stroke-linecap:butt;stroke-linejoin:miter;stroke-miterlimit:10;stroke-dasharray:none;stroke-opacity:1"
           id="path292" /></g></g></g><text
     xml:space="preserve"
     transform="scale(0.96945515,1.0315072)"
     style="font-variant:normal;font-weight:normal;font-stretch:normal;font-size:36.48px;font-family:'Cammron Demo';-inkscape-font-specification:CammronDemo;writing-mode:lr-tb;fill:#231f20;fill-opacity:1;fill-rule:nonzero;stroke:none;stroke-width:0.342002"
     id="text296"
     x="714.59375"
     y="299.46271"><tspan
       x="714.59375 734.65784 757.89569 780.14862 802.40155 825.6394 834.68652 863.5423 886.78021 909.47089 926.14233"
       y="299.46271"
       sodipodi:role="line"
       id="tspan294"
       style="stroke-width:0.342002">BARRA MANSA</tspan></text><g
     id="g298"
     transform="matrix(0.35277776,0,0,-0.35277778,611,381.00001)"><g
       id="g300"
       clip-path="url(#clipPath304)"><g
         id="g306"
         transform="translate(237.5937,277.6641)"><path
           d="m 0,0 c 1.336,-0.144 2.438,-0.766 3.309,-1.867 0.867,-1.104 1.302,-2.472 1.302,-4.107 v -59.839 c 0,-1.637 -0.435,-3.005 -1.302,-4.107 C 2.438,-71.023 1.336,-71.646 0,-71.787 l -0.802,-0.107 v -1.173 h 30.777 c 3.542,0 6.782,0.497 9.724,1.494 2.94,0.995 5.496,2.399 7.669,4.213 2.171,1.813 3.86,3.964 5.063,6.453 1.203,2.488 1.804,5.226 1.804,8.214 0,2.488 -0.568,4.816 -1.704,6.986 -1.137,2.168 -2.724,4.106 -4.761,5.813 -2.041,1.707 -4.479,3.128 -7.319,4.267 -2.842,1.137 -5.965,1.955 -9.374,2.453 5.213,1.067 9.424,3.163 12.632,6.294 3.208,3.128 4.812,6.897 4.812,11.307 0,2.488 -0.536,4.762 -1.604,6.826 -1.07,2.061 -2.557,3.84 -4.461,5.333 -1.905,1.494 -4.16,2.648 -6.768,3.467 -2.606,0.817 -5.447,1.226 -8.52,1.226 h -28.07 l 0.1,-1.173 z m 19.821,-32.96 h -8.893 v 32.426 h 16.088 c 2.198,0 4.212,-0.373 6.045,-1.119 1.833,-0.747 3.415,-1.797 4.748,-3.148 1.331,-1.351 2.363,-2.951 3.096,-4.8 0.733,-1.849 1.1,-3.876 1.1,-6.08 0,-2.418 -0.434,-4.676 -1.301,-6.773 -0.866,-2.098 -2.081,-3.93 -3.646,-5.493 -1.567,-1.565 -3.448,-2.774 -5.645,-3.626 -2.199,-0.854 -4.598,-1.281 -7.195,-1.281 z m 2.435,-1.174 c 3.675,0 7.05,-0.463 10.125,-1.387 3.073,-0.924 5.729,-2.205 7.97,-3.839 2.238,-1.637 3.975,-3.592 5.212,-5.867 1.237,-2.277 1.855,-4.765 1.855,-7.466 0,-2.703 -0.451,-5.193 -1.354,-7.467 -0.902,-2.277 -2.155,-4.25 -3.758,-5.92 -1.605,-1.672 -3.527,-2.97 -5.765,-3.894 -2.24,-0.924 -4.661,-1.386 -7.268,-1.386 H 10.928 v 37.226 z"
           style="fill:none;stroke:#231f20;stroke-width:3;stroke-linecap:butt;stroke-linejoin:miter;stroke-miterlimit:10;stroke-dasharray:none;stroke-opacity:1"
           id="path308" /></g><g
         id="g310"
         transform="translate(355.7881,204.5967)"><path
           d="m 0,0 v 1.174 c -2.875,0 -5.147,1.848 -6.817,5.547 L -31.98,76.054 h -1.604 L -56.742,6.507 C -57.479,4.801 -58.463,3.537 -59.699,2.721 -60.937,1.902 -62.355,1.387 -63.96,1.174 V 0 h 15.238 v 1.174 l -1.203,0.106 c -1.738,0.142 -3.008,0.817 -3.809,2.027 -0.802,1.209 -1.003,2.737 -0.602,4.587 l 6.115,18.667 h 27.368 l 6.818,-19.307 c 0.601,-1.637 0.566,-3.005 -0.101,-4.107 -0.669,-1.103 -1.771,-1.725 -3.308,-1.867 L -19.148,1.174 -18.947,0 Z m -47.72,28.267 12.733,38.827 13.533,-38.827 z"
           style="fill:none;stroke:#231f20;stroke-width:3;stroke-linecap:butt;stroke-linejoin:miter;stroke-miterlimit:10;stroke-dasharray:none;stroke-opacity:1"
           id="path312" /></g><g
         id="g314"
         transform="translate(355.7881,277.877)"><path
           d="M 0,0 0.802,-0.106 C 2.138,-0.25 3.24,-0.872 4.11,-1.974 4.978,-3.076 5.413,-4.445 5.413,-6.08 v -59.84 c 0,-1.637 -0.435,-3.005 -1.303,-4.106 -0.87,-1.104 -1.972,-1.726 -3.308,-1.868 L 0,-72 v -1.173 H 17.443 V -72 l -0.801,0.106 c -1.338,0.142 -2.441,0.764 -3.309,1.868 -0.869,1.101 -1.304,2.469 -1.304,4.106 v 28.373 h 11.392 c 1.397,-1.849 3.763,-4.836 7.093,-8.96 3.33,-4.125 7.261,-8.996 11.792,-14.613 2.205,-2.774 4.009,-4.943 5.413,-6.507 1.403,-1.564 2.656,-2.738 3.76,-3.519 1.102,-0.784 2.205,-1.281 3.307,-1.494 1.103,-0.214 2.456,-0.32 4.061,-0.32 h 2.405 v 1.387 c -0.802,0 -1.453,0.07 -1.954,0.214 -0.502,0.141 -1.07,0.496 -1.704,1.066 -0.637,0.568 -1.472,1.475 -2.507,2.72 -1.037,1.243 -2.456,2.969 -4.261,5.174 -4.946,6.186 -9.222,11.554 -12.832,16.106 -3.608,4.55 -6.082,7.68 -7.418,9.387 2.873,0.427 5.496,1.208 7.869,2.346 2.372,1.137 4.411,2.541 6.116,4.213 1.704,1.67 3.023,3.574 3.96,5.707 0.935,2.133 1.403,4.409 1.403,6.827 0,2.773 -0.551,5.334 -1.653,7.68 -1.104,2.347 -2.625,4.355 -4.562,6.027 C 41.77,-2.437 39.464,-1.12 36.791,-0.16 34.117,0.8 31.21,1.28 28.069,1.28 L 0,0.96 Z m 11.93,-35.733 v 35.306 h 16.088 c 2.198,0 4.212,-0.445 6.045,-1.333 1.833,-0.89 3.415,-2.098 4.748,-3.627 1.331,-1.53 2.363,-3.36 3.096,-5.493 0.734,-2.134 1.1,-4.48 1.1,-7.04 0,-2.559 -0.449,-4.943 -1.349,-7.146 -0.899,-2.205 -2.149,-4.107 -3.748,-5.707 -1.599,-1.6 -3.515,-2.845 -5.746,-3.734 -2.231,-0.889 -4.647,-1.333 -7.244,-1.333 v 0.107 z"
           style="fill:none;stroke:#231f20;stroke-width:3;stroke-linecap:butt;stroke-linejoin:miter;stroke-miterlimit:10;stroke-dasharray:none;stroke-opacity:1"
           id="path316" /></g><g
         id="g318"
         transform="translate(416.9395,277.877)"><path
           d="M 0,0 0.802,-0.106 C 2.138,-0.25 3.24,-0.872 4.11,-1.974 4.978,-3.076 5.413,-4.445 5.413,-6.08 v -59.84 c 0,-1.637 -0.435,-3.005 -1.303,-4.106 -0.87,-1.104 -1.972,-1.726 -3.308,-1.868 L 0,-72 v -1.173 H 17.443 V -72 l -0.801,0.106 c -1.338,0.142 -2.441,0.764 -3.309,1.868 -0.869,1.101 -1.304,2.469 -1.304,4.106 v 28.373 h 11.392 c 1.397,-1.849 3.763,-4.836 7.093,-8.96 3.33,-4.125 7.261,-8.996 11.792,-14.613 2.205,-2.774 4.009,-4.943 5.413,-6.507 1.403,-1.564 2.656,-2.738 3.76,-3.519 1.102,-0.784 2.205,-1.281 3.307,-1.494 1.103,-0.214 2.456,-0.32 4.061,-0.32 h 2.405 v 1.387 c -0.802,0 -1.453,0.07 -1.954,0.214 -0.502,0.141 -1.07,0.496 -1.704,1.066 -0.637,0.568 -1.472,1.475 -2.507,2.72 -1.037,1.243 -2.456,2.969 -4.261,5.174 -4.946,6.186 -9.222,11.554 -12.832,16.106 -3.608,4.55 -6.082,7.68 -7.418,9.387 2.873,0.427 5.496,1.208 7.869,2.346 2.372,1.137 4.411,2.541 6.116,4.213 1.704,1.67 3.023,3.574 3.96,5.707 0.935,2.133 1.403,4.409 1.403,6.827 0,2.773 -0.551,5.334 -1.653,7.68 -1.104,2.347 -2.625,4.355 -4.562,6.027 C 41.77,-2.437 39.464,-1.12 36.791,-0.16 34.117,0.8 31.21,1.28 28.069,1.28 L 0,0.96 Z m 11.93,-35.733 v 35.306 h 16.088 c 2.198,0 4.212,-0.445 6.045,-1.333 1.833,-0.89 3.415,-2.098 4.748,-3.627 1.331,-1.53 2.363,-3.36 3.096,-5.493 0.734,-2.134 1.1,-4.48 1.1,-7.04 0,-2.559 -0.449,-4.943 -1.349,-7.146 -0.899,-2.205 -2.149,-4.107 -3.748,-5.707 -1.599,-1.6 -3.515,-2.845 -5.746,-3.734 -2.231,-0.889 -4.647,-1.333 -7.244,-1.333 v 0.107 z"
           style="fill:none;stroke:#231f20;stroke-width:3;stroke-linecap:butt;stroke-linejoin:miter;stroke-miterlimit:10;stroke-dasharray:none;stroke-opacity:1"
           id="path320" /></g><g
         id="g322"
         transform="translate(541.9502,204.5967)"><path
           d="m 0,0 v 1.174 c -2.875,0 -5.147,1.848 -6.817,5.547 L -31.98,76.054 h -1.604 L -56.742,6.507 C -57.479,4.801 -58.463,3.537 -59.699,2.721 -60.937,1.902 -62.355,1.387 -63.96,1.174 V 0 h 15.238 v 1.174 l -1.203,0.106 c -1.738,0.142 -3.008,0.817 -3.809,2.027 -0.802,1.209 -1.003,2.737 -0.602,4.587 l 6.115,18.667 h 27.368 l 6.818,-19.307 c 0.601,-1.637 0.566,-3.005 -0.101,-4.107 -0.669,-1.103 -1.771,-1.725 -3.308,-1.867 L -19.148,1.174 -18.947,0 Z m -47.72,28.267 12.733,38.827 13.533,-38.827 z"
           style="fill:none;stroke:#231f20;stroke-width:3;stroke-linecap:butt;stroke-linejoin:miter;stroke-miterlimit:10;stroke-dasharray:none;stroke-opacity:1"
           id="path324" /></g><g
         id="g326"
         transform="translate(628.8652,204.5967)"><path
           d="M 0,0 H 17.243 V 1.174 L 16.44,1.28 C 15.17,1.422 14.085,1.99 13.183,2.987 12.28,3.982 11.762,5.228 11.629,6.721 L 9.122,67.094 c -0.067,1.635 0.301,3.003 1.104,4.106 0.801,1.102 1.87,1.724 3.208,1.867 l 0.701,0.107 v 1.173 H 3.007 L -22.155,7.574 -22.256,7.681 -49.123,74.347 h -10.426 v -1.173 l 0.802,-0.107 c 1.203,-0.143 2.206,-0.676 3.008,-1.6 0.801,-0.925 1.268,-2.098 1.403,-3.52 L -56.44,7.254 C -56.575,5.617 -57.06,4.249 -57.895,3.147 -58.731,2.044 -59.816,1.422 -61.152,1.28 L -61.955,1.174 V 0 h 15.339 V 1.174 L -48.02,1.28 c -1.939,0.142 -3.493,0.87 -4.662,2.187 -1.17,1.315 -1.721,3.004 -1.654,5.067 l 2.005,57.386 c 4.612,-11.164 9.156,-22.258 13.635,-33.279 4.476,-11.024 9.022,-22.08 13.634,-33.174 h 1.603 L 3.408,69.014 5.514,6.507 C 5.379,5.084 4.912,3.894 4.11,2.934 3.308,1.974 2.306,1.422 1.103,1.28 L 0.301,1.174 0,1.28 Z"
           style="fill:none;stroke:#231f20;stroke-width:3;stroke-linecap:butt;stroke-linejoin:miter;stroke-miterlimit:10;stroke-dasharray:none;stroke-opacity:1"
           id="path328" /></g><g
         id="g330"
         transform="translate(709.9668,204.5967)"><path
           d="m 0,0 v 1.174 c -2.875,0 -5.147,1.848 -6.817,5.547 L -31.98,76.054 h -1.604 L -56.742,6.507 C -57.479,4.801 -58.463,3.537 -59.699,2.721 -60.937,1.902 -62.355,1.387 -63.96,1.174 V 0 h 15.238 v 1.174 l -1.203,0.106 c -1.738,0.142 -3.008,0.817 -3.809,2.027 -0.802,1.209 -1.003,2.737 -0.602,4.587 l 6.115,18.667 h 27.368 l 6.818,-19.307 c 0.601,-1.637 0.566,-3.005 -0.101,-4.107 -0.669,-1.103 -1.771,-1.725 -3.308,-1.867 L -19.148,1.174 -18.947,0 Z m -47.72,28.267 12.733,38.827 13.533,-38.827 z"
           style="fill:none;stroke:#231f20;stroke-width:3;stroke-linecap:butt;stroke-linejoin:miter;stroke-miterlimit:10;stroke-dasharray:none;stroke-opacity:1"
           id="path332" /></g><g
         id="g334"
         transform="translate(710.7686,277.6641)"><path
           d="m 0,0 c 1.336,-0.144 2.438,-0.766 3.309,-1.867 0.867,-1.104 1.302,-2.472 1.302,-4.107 v -59.839 c 0,-1.637 -0.435,-3.005 -1.302,-4.107 C 2.438,-71.023 1.336,-71.646 0,-71.787 l -0.802,-0.107 v -1.173 H 12.13 v 1.173 l -0.802,0.107 c -1.338,0.141 -2.44,0.764 -3.308,1.867 -0.87,1.102 -1.303,2.47 -1.303,4.107 v 61.226 c 7.952,-11.733 15.872,-23.344 23.759,-34.827 7.885,-11.484 15.772,-23.093 23.659,-34.826 h 2.005 v 68.373 c 0,1.635 0.434,3.004 1.303,4.106 0.868,1.102 1.971,1.724 3.308,1.867 l 0.803,0.107 V 1.387 H 48.621 V 0.213 l 0.802,-0.107 c 1.337,-0.143 2.439,-0.765 3.308,-1.867 0.869,-1.102 1.304,-2.471 1.304,-4.106 V -63.146 L 10.226,1.387 H -1.003 l 0.201,-1.281 z"
           style="fill:none;stroke:#231f20;stroke-width:3;stroke-linecap:butt;stroke-linejoin:miter;stroke-miterlimit:10;stroke-dasharray:none;stroke-opacity:1"
           id="path336" /></g><g
         id="g338"
         transform="translate(814.4248,273.8232)"><path
           d="m 0,0 c -1.338,0.854 -2.841,1.617 -4.511,2.294 -1.672,0.675 -3.409,1.262 -5.213,1.76 -1.804,0.497 -3.609,0.888 -5.414,1.174 -1.804,0.283 -3.508,0.425 -5.112,0.425 -3.008,0 -5.782,-0.516 -8.321,-1.546 -2.54,-1.032 -4.746,-2.471 -6.617,-4.32 -1.872,-1.85 -3.325,-4.054 -4.36,-6.613 -1.037,-2.56 -1.555,-5.333 -1.555,-8.32 0,-1.992 0.502,-3.965 1.504,-5.92 1.003,-1.956 2.372,-3.805 4.111,-5.547 1.737,-1.743 3.809,-3.307 6.216,-4.694 2.405,-1.385 5.044,-2.506 7.919,-3.359 3.007,-0.854 5.764,-1.957 8.271,-3.307 2.506,-1.351 4.677,-2.844 6.516,-4.48 1.837,-1.637 3.274,-3.343 4.31,-5.12 1.036,-1.779 1.555,-3.557 1.555,-5.333 0,-2.205 -0.419,-4.232 -1.254,-6.08 -0.836,-1.85 -1.972,-3.451 -3.408,-4.8 -1.438,-1.352 -3.158,-2.401 -5.163,-3.147 -2.005,-0.747 -4.21,-1.12 -6.617,-1.12 -1.603,0 -3.275,0.088 -5.012,0.267 -1.739,0.177 -3.476,0.443 -5.213,0.8 -2.54,0.71 -4.98,2.133 -7.319,4.266 -2.339,2.134 -4.11,4.587 -5.312,7.361 -0.201,0.426 -0.401,0.922 -0.602,1.493 -0.201,0.568 -0.401,1.066 -0.601,1.493 h -0.902 v -11.84 c 1.335,-0.853 2.957,-1.618 4.862,-2.293 1.904,-0.677 3.959,-1.264 6.165,-1.761 2.205,-0.498 4.511,-0.889 6.917,-1.172 2.406,-0.284 4.745,-0.427 7.017,-0.427 3.008,0 5.781,0.48 8.322,1.44 2.539,0.96 4.744,2.31 6.616,4.053 1.87,1.742 3.323,3.822 4.36,6.24 1.036,2.417 1.554,5.048 1.554,7.894 0,2.133 -0.501,4.248 -1.503,6.346 -1.003,2.097 -2.391,4.053 -4.161,5.867 -1.772,1.813 -3.894,3.466 -6.365,4.96 -2.474,1.493 -5.181,2.667 -8.12,3.52 -2.943,0.854 -5.649,1.92 -8.121,3.2 -2.473,1.28 -4.612,2.666 -6.416,4.159 -1.804,1.495 -3.208,3.076 -4.211,4.748 -1.002,1.669 -1.503,3.288 -1.503,4.853 0,2.416 0.418,4.621 1.256,6.613 0.836,1.991 1.977,3.715 3.418,5.173 1.441,1.457 3.165,2.596 5.177,3.414 2.011,0.817 4.189,1.227 6.535,1.227 2.882,0 6.132,-0.606 9.75,-1.814 1.408,-0.57 2.748,-1.493 4.022,-2.773 1.273,-1.28 2.246,-2.667 2.917,-4.16 l 3.014,-7.04 L 0,-11.84 Z"
           style="fill:none;stroke:#231f20;stroke-width:3;stroke-linecap:butt;stroke-linejoin:miter;stroke-miterlimit:10;stroke-dasharray:none;stroke-opacity:1"
           id="path340" /></g><g
         id="g342"
         transform="translate(881.9932,204.5967)"><path
           d="m 0,0 v 1.174 c -2.875,0 -5.147,1.848 -6.817,5.547 L -31.98,76.054 h -1.604 L -56.742,6.507 C -57.479,4.801 -58.463,3.537 -59.699,2.721 -60.937,1.902 -62.355,1.387 -63.96,1.174 V 0 h 15.238 v 1.174 l -1.203,0.106 c -1.738,0.142 -3.008,0.817 -3.809,2.027 -0.802,1.209 -1.003,2.737 -0.602,4.587 l 6.115,18.667 h 27.368 l 6.818,-19.307 c 0.601,-1.637 0.566,-3.005 -0.101,-4.107 -0.669,-1.103 -1.771,-1.725 -3.308,-1.867 L -19.148,1.174 -18.947,0 Z m -47.72,28.267 12.733,38.827 13.533,-38.827 z"
           style="fill:none;stroke:#231f20;stroke-width:3;stroke-linecap:butt;stroke-linejoin:miter;stroke-miterlimit:10;stroke-dasharray:none;stroke-opacity:1"
           id="path344" /></g><g
         id="g346"
         transform="translate(824.2852,548.8096)"><path
           d="M 0,0 13.372,-14.199 H -14.03"
           style="fill:none;stroke:#231f20;stroke-width:2;stroke-linecap:butt;stroke-linejoin:miter;stroke-miterlimit:10;stroke-dasharray:none;stroke-opacity:1"
           id="path348" /></g></g></g><g
     id="g555"
     transform="matrix(0.35277776,0,0,-0.35277778,-243.95667,780.88122)"
     inkscape:export-filename="logo.svg"
     inkscape:export-xdpi="96"
     inkscape:export-ydpi="96"><g
       id="g553"
       clip-path="url(#clipPath200)"><g
         id="g543"
         transform="translate(482.9092,318.1406)"
         style="display:inline"><path
           d="m 0,0 h -181.415 v 221.649 c -28.315,0 -84.537,1.888 -84.933,2.832 102.457,87.585 204.914,175.171 308.454,263.682 28.762,-24.438 57.151,-48.562 87.933,-74.716 0,14.338 0.178,26.067 -0.049,37.787 -0.251,13.041 0.383,13.806 13.66,13.727 22.373,-0.133 44.745,-0.36 67.116,-0.244 6.561,0.035 9.284,-1.369 9.183,-9.038 -0.494,-36.835 0.02,-73.68 -0.361,-110.517 -0.076,-7.703 3.584,-12.099 8.791,-16.537 39.017,-33.257 116.246,-107.147 113.728,-107.155 -22.681,-0.069 -45.369,-0.345 -68.041,0.146 -6.853,0.148 -8.718,-2.005 -8.693,-8.475 0.186,-50.363 0.131,-100.726 0.147,-151.089 0.005,-20.396 0,-40.787 0,-61.956 H 96.754 c 8.603,12.572 17.08,23.425 23.838,35.262 6.801,11.917 13.348,24.354 17.452,37.369 12.325,39.085 9.472,77.315 -8.523,114.548 -29.738,61.532 -79.116,99.2 -142.954,119.953 -7.315,2.376 -11.478,0.417 -15.535,-5.949 -9.676,-15.189 -21.383,-29.213 -29.886,-44.991 -13.638,-25.298 -18.221,-52.903 -18.167,-81.817 0.042,-23.576 3.792,-46.451 10.822,-68.351 C -54.3,69.047 -36.297,35.042 -4.315,10.707 -0.566,7.857 3.959,6.029 8.422,4.115 9.985,3.444 11.543,2.763 13.058,2.022 13.097,1.349 4.393,0 0,0 Z"
           style="display:inline;fill:#1e1604;fill-opacity:1;stroke:#1e1604;stroke-width:4;stroke-linecap:butt;stroke-linejoin:miter;stroke-miterlimit:10;stroke-dasharray:none;stroke-opacity:1"
           id="path541" /></g><g
         id="g547"
         transform="translate(504.3301,535.3271)"
         style="display:inline"><path
           d="M 0,0 C 60.902,-60.717 62.647,-138.161 62.415,-216.488 H 37.511 C 39.816,-141.275 42.307,-66.83 0,0 Z"
           style="display:inline;fill:#1e1604;fill-opacity:1;stroke:#1e1604;stroke-width:4;stroke-linecap:butt;stroke-linejoin:miter;stroke-miterlimit:10;stroke-dasharray:none;stroke-opacity:1"
           id="path545" /></g><g
         id="g551"
         transform="translate(492.958,321.5498)"
         style="display:inline"><path
           d="m 0,0 8.399,-2.711 -21.28,-0.698"
           style="fill:none;stroke:#ffffff;stroke-width:4;stroke-linecap:butt;stroke-linejoin:miter;stroke-miterlimit:10;stroke-dasharray:none;stroke-opacity:1"
           id="path549" /></g></g></g><text
     xml:space="preserve"
     transform="scale(0.96945518,1.0315072)"
     style="font-variant:normal;font-weight:normal;font-stretch:normal;font-size:45.7993px;font-family:'Cammron Demo';-inkscape-font-specification:CammronDemo;writing-mode:lr-tb;display:inline;fill:#1e1604;fill-opacity:1;fill-rule:nonzero;stroke:none;stroke-width:0.429371"
     id="text3291"
     x="73.114334"
     y="614.71967"><tspan
       x="73.114334 98.304054 127.47836 155.41609 183.35384 212.52815 223.88641 260.11383 289.28815 317.77548 338.70584"
       y="614.71967"
       sodipodi:role="line"
       id="tspan3289"
       style="fill:#1e1604;fill-opacity:1;stroke-width:0.429371">BARRA MANSA</tspan></text></svg>
