<?xml version="1.0" encoding="UTF-8" standalone="no"?>
<!-- Created with Inkscape (http://www.inkscape.org/) -->

<svg
   width="526.5567mm"
   height="173.84567mm"
   viewBox="0 0 526.5567 173.84567"
   version="1.1"
   id="svg5"
   xml:space="preserve"
   sodipodi:docname="logo.svg"
   inkscape:version="1.2.2 (732a01da63, 2022-12-09)"
   xmlns:inkscape="http://www.inkscape.org/namespaces/inkscape"
   xmlns:sodipodi="http://sodipodi.sourceforge.net/DTD/sodipodi-0.dtd"
   xmlns="http://www.w3.org/2000/svg"
   xmlns:svg="http://www.w3.org/2000/svg"><sodipodi:namedview
     id="namedview7"
     pagecolor="#ffffff"
     bordercolor="#000000"
     borderopacity="0.25"
     inkscape:showpageshadow="2"
     inkscape:pageopacity="0.0"
     inkscape:pagecheckerboard="0"
     inkscape:deskcolor="#d1d1d1"
     inkscape:document-units="mm"
     showgrid="false"
     inkscape:zoom="0.88613276"
     inkscape:cx="776.40736"
     inkscape:cy="438.98614"
     inkscape:window-width="1920"
     inkscape:window-height="1057"
     inkscape:window-x="-8"
     inkscape:window-y="608"
     inkscape:window-maximized="1"
     inkscape:current-layer="g547" /><defs
     id="defs2"><clipPath
       clipPathUnits="userSpaceOnUse"
       id="clipPath200"><path
         d="M 0,1080 H 1080 V 0 H 0 Z"
         id="path198" /></clipPath></defs><g
     id="g555"
     transform="matrix(0.35277776,0,0,-0.35277778,-75.548204,285.37302)"><g
       id="g553"
       clip-path="url(#clipPath200)"><g
         id="g543"
         transform="translate(482.9092,318.1406)"
         style="display:inline"><path
           d="m 0,0 h -181.415 v 221.649 c -28.315,0 -84.537,1.888 -84.933,2.832 102.457,87.585 204.914,175.171 308.454,263.682 28.762,-24.438 57.151,-48.562 87.933,-74.716 0,14.338 0.178,26.067 -0.049,37.787 -0.251,13.041 0.383,13.806 13.66,13.727 22.373,-0.133 44.745,-0.36 67.116,-0.244 6.561,0.035 9.284,-1.369 9.183,-9.038 -0.494,-36.835 0.02,-73.68 -0.361,-110.517 -0.076,-7.703 3.584,-12.099 8.791,-16.537 39.017,-33.257 116.246,-107.147 113.728,-107.155 -22.681,-0.069 -45.369,-0.345 -68.041,0.146 -6.853,0.148 -8.718,-2.005 -8.693,-8.475 0.186,-50.363 0.131,-100.726 0.147,-151.089 0.005,-20.396 0,-40.787 0,-61.956 H 96.754 c 8.603,12.572 17.08,23.425 23.838,35.262 6.801,11.917 13.348,24.354 17.452,37.369 12.325,39.085 9.472,77.315 -8.523,114.548 -29.738,61.532 -79.116,99.2 -142.954,119.953 -7.315,2.376 -11.478,0.417 -15.535,-5.949 -9.676,-15.189 -21.383,-29.213 -29.886,-44.991 -13.638,-25.298 -18.221,-52.903 -18.167,-81.817 0.042,-23.576 3.792,-46.451 10.822,-68.351 C -54.3,69.047 -36.297,35.042 -4.315,10.707 1.4381539,6.6381265 11.159887,-0.30552936 11.159887,-0.30552936 11.159887,-0.30552936 4.393,0 0,0 Z"
           style="display:inline;fill:#a3724f;fill-opacity:1;stroke:#a3724f;stroke-width:4;stroke-linecap:butt;stroke-linejoin:miter;stroke-miterlimit:10;stroke-dasharray:none;stroke-opacity:1"
           id="path541"
           sodipodi:nodetypes="scccccccccccccccccccccccccccs" /></g><g
         id="g547"
         transform="translate(504.3301,535.3271)"
         style="display:inline"><path
           d="M 0,0 C 60.902,-60.717 62.647,-138.161 62.415,-216.488 H 37.511 C 39.816,-141.275 42.307,-66.83 0,0 Z"
           style="display:inline;fill:#a3724f;fill-opacity:1;stroke:#a3724f;stroke-width:4;stroke-linecap:butt;stroke-linejoin:miter;stroke-miterlimit:10;stroke-dasharray:none;stroke-opacity:1"
           id="path545" /></g><g
         id="g551"
         transform="translate(492.958,321.5498)"
         style="display:none"><path
           d="m 0,0 8.399,-2.711 -21.28,-0.698"
           style="fill:none;stroke:#ffffff;stroke-width:4;stroke-linecap:butt;stroke-linejoin:miter;stroke-miterlimit:10;stroke-dasharray:none;stroke-opacity:1"
           id="path549" /></g></g></g><text
     xml:space="preserve"
     transform="scale(0.96945518,1.0315072)"
     style="font-variant:normal;font-weight:normal;font-stretch:normal;font-size:45.7993px;font-family:'Cammron Demo';-inkscape-font-specification:CammronDemo;writing-mode:lr-tb;display:inline;fill:#a3724f;fill-opacity:1;fill-rule:nonzero;stroke:none;stroke-width:0.429371"
     id="text3291"
     x="246.82887"
     y="134.34668"><tspan
       x="246.82887 272.01859 301.1929 329.13065 357.06839 386.24271 397.60095 433.82837 463.00269 491.49002 512.42041"
       y="134.34668"
       sodipodi:role="line"
       id="tspan3289"
       style="fill:#a3724f;fill-opacity:1;stroke-width:0.429371">BARRA MANSA</tspan></text></svg>
