<?xml version="1.0" encoding="UTF-8" standalone="no"?>
<!-- Created with Inkscape (http://www.inkscape.org/) -->

<svg
   width="322.42288"
   height="459.57239"
   viewBox="0 0 85.307717 121.59519"
   version="1.1"
   id="svg5"
   xml:space="preserve"
   inkscape:export-filename="maps.svg"
   inkscape:export-xdpi="96"
   inkscape:export-ydpi="96"
   sodipodi:docname="maps.svg"
   inkscape:version="1.2.2 (732a01da63, 2022-12-09)"
   xmlns:inkscape="http://www.inkscape.org/namespaces/inkscape"
   xmlns:sodipodi="http://sodipodi.sourceforge.net/DTD/sodipodi-0.dtd"
   xmlns="http://www.w3.org/2000/svg"
   xmlns:svg="http://www.w3.org/2000/svg"><sodipodi:namedview
     id="namedview7"
     pagecolor="#ffffff"
     bordercolor="#000000"
     borderopacity="0.25"
     inkscape:showpageshadow="2"
     inkscape:pageopacity="0.0"
     inkscape:pagecheckerboard="0"
     inkscape:deskcolor="#d1d1d1"
     inkscape:document-units="mm"
     showgrid="false"
     inkscape:zoom="1.3493688"
     inkscape:cx="5.1876106"
     inkscape:cy="206.76334"
     inkscape:window-width="1920"
     inkscape:window-height="1057"
     inkscape:window-x="-8"
     inkscape:window-y="608"
     inkscape:window-maximized="1"
     inkscape:current-layer="layer1" /><defs
     id="defs2" /><g
     inkscape:label="Camada 1"
     inkscape:groupmode="layer"
     id="layer1"
     transform="translate(-25.079469,-8.3909418)"><g
       id="g950"
       inkscape:label="maps"
       transform="matrix(0.78690181,0,0,0.78690181,14.434062,14.743964)"><path
         id="path618"
         style="fill:#a3724f;fill-opacity:1;stroke:none;stroke-width:3.02228;stroke-linecap:round;stroke-linejoin:round;stroke-miterlimit:4.3;stroke-opacity:1"
         d="M 67.779579,8.390971 C 49.125582,8.3669213 29.620928,22.946696 25.69482,43.143143 c -3.99477,20.549636 12.294688,40.858693 24.767406,57.712707 8.027229,10.84695 13.651168,22.05642 15.090186,27.661 0.580259,2.12763 5.033076,1.69916 5.182749,0.26859 C 81.00874,101.19681 116.74412,72.631271 109.40096,41.744744 105.34251,24.674217 87.422276,8.8967745 68.666786,8.403367 68.371184,8.3955902 68.075675,8.3913527 67.779579,8.390971 Z m -0.06788,25.073768 a 15.957023,15.957023 0 0 1 0.410836,0.0053 15.957023,15.957023 0 0 1 0.410843,0.01594 15.957023,15.957023 0 0 1 0.409667,0.02656 15.957023,15.957023 0 0 1 0.409656,0.03718 15.957023,15.957023 0 0 1 0.407887,0.04722 15.957023,15.957023 0 0 1 0.406712,0.05784 15.957023,15.957023 0 0 1 0.404937,0.06848 15.957023,15.957023 0 0 1 0.403761,0.0791 15.957023,15.957023 0 0 1 0.400806,0.08913 15.957023,15.957023 0 0 1 0.398449,0.09976 15.957023,15.957023 0 0 1 0.396087,0.109795 15.957023,15.957023 0 0 1 0.393126,0.119828 15.957023,15.957023 0 0 1 0.3896,0.129864 15.957023,15.957023 0 0 1 0.386637,0.139899 15.957023,15.957023 0 0 1 0.382507,0.149933 15.957023,15.957023 0 0 1 0.378382,0.159969 15.957023,15.957023 0 0 1 0.374826,0.169414 15.957023,15.957023 0 0 1 0.369526,0.178857 15.957023,15.957023 0 0 1 0.365395,0.188304 15.957023,15.957023 0 0 1 0.36007,0.197747 15.957023,15.957023 0 0 1 0.35477,0.207192 15.957023,15.957023 0 0 1 0.349446,0.216046 15.957023,15.957023 0 0 1 0.344146,0.224901 15.957023,15.957023 0 0 1 0.33764,0.233755 15.957023,15.957023 0 0 1 0.331753,0.242019 15.957023,15.957023 0 0 1 0.325834,0.250873 15.957023,15.957023 0 0 1 0.318754,0.259138 15.957023,15.957023 0 0 1 0.312266,0.267401 15.957023,15.957023 0 0 1 0.304585,0.275076 15.957023,15.957023 0 0 1 0.298105,0.28334 15.957023,15.957023 0 0 1 0.290423,0.290423 15.957023,15.957023 0 0 1 0.28333,0.297505 15.957023,15.957023 0 0 1 0.275075,0.305181 15.957023,15.957023 0 0 1 0.267412,0.312264 15.957023,15.957023 0 0 1 0.259137,0.318757 15.957023,15.957023 0 0 1 0.250864,0.325839 15.957023,15.957023 0 0 1 0.242031,0.331744 15.957023,15.957023 0 0 1 0.233752,0.337646 15.957023,15.957023 0 0 1 0.224895,0.34414 15.957023,15.957023 0 0 1 0.216052,0.349451 15.957023,15.957023 0 0 1 0.207184,0.354766 15.957023,15.957023 0 0 1 0.197753,0.360076 15.957023,15.957023 0 0 1 0.188304,0.36539 15.957023,15.957023 0 0 1 0.17886,0.369522 15.957023,15.957023 0 0 1 0.16941,0.374835 15.957023,15.957023 0 0 1 0.159968,0.378376 15.957023,15.957023 0 0 1 0.149937,0.382508 15.957023,15.957023 0 0 1 0.139893,0.386641 15.957023,15.957023 0 0 1 0.129869,0.389591 15.957023,15.957023 0 0 1 0.119825,0.393133 15.957023,15.957023 0 0 1 0.109794,0.396086 15.957023,15.957023 0 0 1 0.09976,0.398445 15.957023,15.957023 0 0 1 0.08914,0.400808 15.957023,15.957023 0 0 1 0.07913,0.403758 15.957023,15.957023 0 0 1 0.06848,0.404939 15.957023,15.957023 0 0 1 0.05782,0.406711 15.957023,15.957023 0 0 1 0.04725,0.407891 15.957023,15.957023 0 0 1 0.03717,0.409661 15.957023,15.957023 0 0 1 0.02652,0.409662 15.957023,15.957023 0 0 1 0.01594,0.410842 15.957023,15.957023 0 0 1 0.0059,0.410842 15.957023,15.957023 0 0 1 -0.0449,1.192387 15.957023,15.957023 0 0 1 -0.133402,1.185894 15.957023,15.957023 0 0 1 -0.221949,1.172316 15.957023,15.957023 0 0 1 -0.308723,1.152838 15.957023,15.957023 0 0 1 -0.394318,1.126274 15.957023,15.957023 0 0 1 -0.47754,1.093808 15.957023,15.957023 0 0 1 -0.557242,1.054849 15.957023,15.957023 0 0 1 -0.635144,1.010578 15.957023,15.957023 0 0 1 -0.708348,0.959812 15.957023,15.957023 0 0 1 -0.778593,0.904915 15.957023,15.957023 0 0 1 -0.843529,0.843524 15.957023,15.957023 0 0 1 -0.904325,0.778595 15.957023,15.957023 0 0 1 -0.960404,0.708348 15.957023,15.957023 0 0 1 -1.010576,0.635153 15.957023,15.957023 0 0 1 -1.054856,0.557234 15.957023,15.957023 0 0 1 -1.093798,0.477545 15.957023,15.957023 0 0 1 -1.126283,0.393724 15.957023,15.957023 0 0 1 -1.152832,0.309311 15.957023,15.957023 0 0 1 -1.172313,0.22136 15.957023,15.957023 0 0 1 -1.185899,0.133995 15.957023,15.957023 0 0 1 -1.19238,0.04427 15.957023,15.957023 0 0 1 -1.192392,-0.04427 15.957023,15.957023 0 0 1 -1.185893,-0.133995 15.957023,15.957023 0 0 1 -1.172317,-0.22136 15.957023,15.957023 0 0 1 -1.152837,-0.309311 15.957023,15.957023 0 0 1 -1.126274,-0.393724 15.957023,15.957023 0 0 1 -1.09381,-0.477545 15.957023,15.957023 0 0 1 -1.054872,-0.557247 15.957023,15.957023 0 0 1 -1.010577,-0.635153 15.957023,15.957023 0 0 1 -0.959812,-0.708348 15.957023,15.957023 0 0 1 -0.904915,-0.778595 15.957023,15.957023 0 0 1 -0.843526,-0.843524 15.957023,15.957023 0 0 1 -0.778592,-0.904915 15.957023,15.957023 0 0 1 -0.708349,-0.959812 15.957023,15.957023 0 0 1 -0.635152,-1.010578 15.957023,15.957023 0 0 1 -0.557235,-1.054849 15.957023,15.957023 0 0 1 -0.477545,-1.093808 15.957023,15.957023 0 0 1 -0.393723,-1.126274 15.957023,15.957023 0 0 1 -0.309313,-1.152838 15.957023,15.957023 0 0 1 -0.221949,-1.172316 15.957023,15.957023 0 0 1 -0.133406,-1.185894 15.957023,15.957023 0 0 1 -0.04427,-1.192387 15.957023,15.957023 0 0 1 0.04427,-1.192386 15.957023,15.957023 0 0 1 0.133406,-1.185895 15.957023,15.957023 0 0 1 0.221949,-1.172316 15.957023,15.957023 0 0 1 0.309313,-1.152838 15.957023,15.957023 0 0 1 0.393723,-1.126275 15.957023,15.957023 0 0 1 0.477545,-1.093807 15.957023,15.957023 0 0 1 0.557235,-1.054849 15.957023,15.957023 0 0 1 0.635152,-1.010577 15.957023,15.957023 0 0 1 0.708349,-0.960403 15.957023,15.957023 0 0 1 0.778592,-0.904325 15.957023,15.957023 0 0 1 0.843526,-0.843525 15.957023,15.957023 0 0 1 0.904915,-0.778593 15.957023,15.957023 0 0 1 0.959812,-0.708349 15.957023,15.957023 0 0 1 1.010577,-0.635153 15.957023,15.957023 0 0 1 1.054849,-0.557824 15.957023,15.957023 0 0 1 1.09381,-0.476955 15.957023,15.957023 0 0 1 1.126274,-0.394313 15.957023,15.957023 0 0 1 1.152837,-0.308723 15.957023,15.957023 0 0 1 1.172317,-0.221949 15.957023,15.957023 0 0 1 1.185893,-0.133405 15.957023,15.957023 0 0 1 1.192392,-0.04486 z" /><circle
         style="display:none;fill:#a3724f;stroke:none;stroke-width:2.35045;stroke-linecap:round;stroke-linejoin:round;stroke-miterlimit:4.3"
         id="path946"
         cx="67.714043"
         cy="49.361725"
         r="16.073689" /></g></g></svg>
