<?xml version="1.0" encoding="UTF-8" standalone="no"?>
<svg
   width="101"
   height="616"
   viewBox="0 0 101 616"
   fill="none"
   version="1.1"
   id="svg4"
   sodipodi:docname="splash-chamada.svg"
   inkscape:version="1.2.2 (732a01da63, 2022-12-09)"
   xmlns:inkscape="http://www.inkscape.org/namespaces/inkscape"
   xmlns:sodipodi="http://sodipodi.sourceforge.net/DTD/sodipodi-0.dtd"
   xmlns="http://www.w3.org/2000/svg"
   xmlns:svg="http://www.w3.org/2000/svg">
  <defs
     id="defs8" />
  <sodipodi:namedview
     id="namedview6"
     pagecolor="#ffffff"
     bordercolor="#000000"
     borderopacity="0.25"
     inkscape:showpageshadow="2"
     inkscape:pageopacity="0.0"
     inkscape:pagecheckerboard="0"
     inkscape:deskcolor="#d1d1d1"
     showgrid="false"
     inkscape:zoom="0.71185065"
     inkscape:cx="223.36146"
     inkscape:cy="74.45382"
     inkscape:window-width="1920"
     inkscape:window-height="1057"
     inkscape:window-x="-8"
     inkscape:window-y="608"
     inkscape:window-maximized="1"
     inkscape:current-layer="svg4" />
  <path
     fill-rule="evenodd"
     clip-rule="evenodd"
     d="M284.914 -349.488C378.816 -409.839 500.328 -326.147 606.445 -291.44C695.841 -262.202 781.671 -228.371 850.687 -164.445C922.505 -97.9233 976.461 -16.526 1004.51 77.2671C1036.23 183.339 1064.83 299.816 1019.74 400.899C973.65 504.226 876.3 590.001 765.538 612.99C662.06 634.466 576.585 531.577 472.273 514.525C367.351 497.373 251.989 569.47 161.155 514.189C65.3803 455.901 -6.1279 339.625 1.04142 227.736C8.06001 118.198 147.437 70.9165 195.868 -27.5613C246.231 -129.969 188.927 -287.797 284.914 -349.488Z"
     fill="#FFCB47"
     id="path2"
     style="fill:#a3724f;fill-opacity:1" />
</svg>
