<?xml version="1.0" encoding="UTF-8" standalone="no"?>
<svg
   width="1042.5546"
   height="986.68463"
   viewBox="0 0 1042.5546 986.68463"
   fill="none"
   version="1.1"
   id="svg4"
   sodipodi:docname="splash-chamada-desk.svg"
   inkscape:version="1.2.2 (732a01da63, 2022-12-09)"
   xmlns:inkscape="http://www.inkscape.org/namespaces/inkscape"
   xmlns:sodipodi="http://sodipodi.sourceforge.net/DTD/sodipodi-0.dtd"
   xmlns="http://www.w3.org/2000/svg"
   xmlns:svg="http://www.w3.org/2000/svg">
  <defs
     id="defs8" />
  <sodipodi:namedview
     id="namedview6"
     pagecolor="#ffffff"
     bordercolor="#000000"
     borderopacity="0.25"
     inkscape:showpageshadow="2"
     inkscape:pageopacity="0.0"
     inkscape:pagecheckerboard="0"
     inkscape:deskcolor="#d1d1d1"
     showgrid="false"
     inkscape:zoom="0.71185065"
     inkscape:cx="379.99544"
     inkscape:cy="533.81984"
     inkscape:window-width="1920"
     inkscape:window-height="1057"
     inkscape:window-x="-8"
     inkscape:window-y="608"
     inkscape:window-maximized="1"
     inkscape:current-layer="svg4" />
  <path
     fill-rule="evenodd"
     clip-rule="evenodd"
     d="m 284.36782,21.272466 c 93.902,-60.351 215.414,23.341 321.531,58.048 89.396,29.238004 175.226,63.069004 244.242,126.995004 71.818,66.5217 125.774,147.919 153.82298,241.7121 31.72,106.0719 60.32,222.5489 15.23,323.6319 -46.08998,103.327 -143.43998,189.102 -254.20198,212.091 -103.478,21.47603 -188.953,-81.413 -293.265,-98.465 -104.922,-17.152 -220.284,54.945 -311.118,-0.336 C 64.834118,826.66147 -6.6740816,710.38547 0.49523836,598.49647 7.5138284,488.95847 146.89082,441.67697 195.32182,343.19917 c 50.363,-102.4077 -6.941,-260.235704 89.046,-321.926704 z"
     fill="#FFCB47"
     id="path2"
     style="fill:#a3724f;fill-opacity:1" />
</svg>
