<?xml version="1.0" encoding="UTF-8" standalone="no"?>
<!-- Created with Inkscape (http://www.inkscape.org/) -->

<svg
   width="670.21033"
   height="681.5293"
   viewBox="0 0 177.32647 180.3213"
   version="1.1"
   id="svg5"
   xml:space="preserve"
   inkscape:version="1.2.2 (732a01da63, 2022-12-09)"
   sodipodi:docname="wpp.svg"
   xmlns:inkscape="http://www.inkscape.org/namespaces/inkscape"
   xmlns:sodipodi="http://sodipodi.sourceforge.net/DTD/sodipodi-0.dtd"
   xmlns="http://www.w3.org/2000/svg"
   xmlns:svg="http://www.w3.org/2000/svg"><sodipodi:namedview
     id="namedview7"
     pagecolor="#ffffff"
     bordercolor="#000000"
     borderopacity="0.25"
     inkscape:showpageshadow="2"
     inkscape:pageopacity="0.0"
     inkscape:pagecheckerboard="0"
     inkscape:deskcolor="#d1d1d1"
     inkscape:document-units="mm"
     showgrid="false"
     inkscape:zoom="0.70710678"
     inkscape:cx="327.39044"
     inkscape:cy="433.45646"
     inkscape:window-width="1387"
     inkscape:window-height="1048"
     inkscape:window-x="2024"
     inkscape:window-y="0"
     inkscape:window-maximized="0"
     inkscape:current-layer="layer1" /><defs
     id="defs2" /><g
     inkscape:label="Camada 1"
     inkscape:groupmode="layer"
     id="layer1"
     transform="translate(-17.774518,-54.800152)"><rect
       style="display:none;fill:#666666;stroke-width:2.64583;stroke-linecap:round;stroke-linejoin:round;stroke-miterlimit:4.3"
       id="rect339"
       width="311.06949"
       height="360.3913"
       x="-50.298515"
       y="-33.206787" /><g
       id="g4675"
       inkscape:label="wpp"><path
         style="fill:none;stroke:#ffffff;stroke-width:7.9375;stroke-linecap:round;stroke-linejoin:round;stroke-miterlimit:4.3;stroke-dasharray:none"
         d="m 24.812506,229.43116 6.983117,-42.94615 C -11.269235,95.419397 92.835489,25.744827 157.49173,75.104267 244.16129,140.60765 144.68226,265.87413 69.155307,222.09892 c -3.491561,0.69828 -44.342801,7.33224 -44.342801,7.33224 z"
         id="path461"
         sodipodi:nodetypes="ccccc"
         inkscape:export-filename="wpp.svg"
         inkscape:export-xdpi="96"
         inkscape:export-ydpi="96" /><path
         style="fill:none;stroke:#ffffff;stroke-width:7.9375;stroke-linecap:round;stroke-linejoin:round;stroke-miterlimit:4.3;stroke-dasharray:none"
         d="m 39.905262,213.81732 5.692352,-35.00794 C 10.492904,104.57642 95.354814,47.78056 148.05993,88.016354 218.70941,141.41204 137.61818,243.52413 76.051698,207.84037 c -2.846177,0.56922 -36.146436,5.97695 -36.146436,5.97695 z"
         id="path413"
         sodipodi:nodetypes="ccccc"
         inkscape:export-filename="wpp.svg"
         inkscape:export-xdpi="96"
         inkscape:export-ydpi="96" /><path
         style="fill:#ffffff;stroke:none;stroke-width:10.11;stroke-linecap:round;stroke-linejoin:round;stroke-miterlimit:4.3"
         d="m 87.69,138.95699 c 6.252228,-3.17081 7.578002,-8.69994 7.764133,-10.35221 0,-4.21973 -5.823103,-20.38272 -9.381679,-22.32192 -1.747606,-1.49752 -21.958901,-2.30063 -19.410358,23.61596 0.380044,3.67844 19.733869,54.34902 69.230324,54.34902 2.26451,-0.32364 14.88125,-8.41117 9.05813,-18.43985 -2.02881,-3.77699 -15.9901,-11.95144 -18.11633,-10.67571 -2.26766,-0.11615 -6.59404,3.26256 -9.05817,9.05817 0,0 -14.55777,-0.64687 -30.08605,-25.23346 z"
         id="path619"
         sodipodi:nodetypes="ccccccccc" /></g></g></svg>
